<?xml version="1.0" encoding="UTF-8"?>
<!DOCTYPE svg PUBLIC "-//W3C//DTD SVG 1.1//EN" "http://www.w3.org/Graphics/SVG/1.1/DTD/svg11.dtd">
<!-- Creator: CorelDRAW (Evaluation Version) -->
<svg xmlns="http://www.w3.org/2000/svg" xml:space="preserve" width="6.4in" height="3.6in" version="1.1" style="shape-rendering:geometricPrecision; text-rendering:geometricPrecision; image-rendering:optimizeQuality; fill-rule:evenodd; clip-rule:evenodd"
viewBox="0 0 6400 3600"
 xmlns:xlink="http://www.w3.org/1999/xlink"
 xmlns:xodm="http://www.corel.com/coreldraw/odm/2003">
 <defs>
  <style type="text/css">
   <![CDATA[
    .fil0 {fill:black}
    .fil4 {fill:#000133}
    .fil1 {fill:#00085A}
    .fil3 {fill:#559956}
    .fil2 {fill:#F9F9FA}
    .fil5 {fill:#2D2A2B;fill-rule:nonzero}
   ]]>
  </style>
     <clipPath id="id0">
      <path d="M1929.07 1997l4039.15 0 0 360.3 -4039.15 0 0 -360.3z"/>
     </clipPath>
 </defs>
 <g id="Layer_x0020_1">
  <metadata id="CorelCorpID_0Corel-Layer"/>
  <g id="_425372960">
   <path class="fil0" d="M382.78 1241.5c-50.55,11.34 -76.41,28.57 -102.47,58.04 -27.26,30.83 -42.72,66.28 -44.95,117.59 -4.46,102.35 -0.17,217.61 -0.04,321.37 0.07,58.34 -3.41,440.7 3.39,480.41 14.06,82.22 88.79,139.49 178.31,141.91 144.91,3.93 335.2,0.32 483.61,0.4 58.28,0.04 597.21,5.36 640.73,-4.17 84.97,-18.6 143.33,-82.37 147.75,-173.07 2.46,-50.57 -0.36,-107.89 -0.44,-159.16 -0.17,-95.66 3.88,-601.81 -3.79,-640.69 -7.62,-38.63 -31.39,-82.39 -58.93,-103.56 -73.34,-56.39 -169.41,-41.57 -279.93,-41.55l-642.63 -0.01c-47.56,0 -294.66,-3.36 -320.61,2.47z"/>
   <path class="fil1" d="M379.28 1253.5c-58.34,17.04 -63.98,23.84 -97.09,60.68 -24.07,26.78 -37.45,75 -37.63,122.09 -0.39,104.87 -0.04,210.08 0.33,314.95 0.22,63.85 -5.47,420.8 6.61,467.5 40.95,158.3 181.7,132.18 343.72,130.87l792.15 -0.32c41.15,-0.13 118.99,4.46 155.18,-3.7 17.71,-4 38.89,-14.14 54.33,-21.88 16.78,-8.41 33.56,-24.28 43.14,-36.94 26.06,-34.46 35.77,-67.09 36.73,-121.93 1.84,-104.41 -0.39,-210.37 -0.08,-314.97 0.19,-64.25 3.04,-420.43 -4.15,-470.02 -6.42,-44.25 -31.23,-72.95 -61.98,-96.95 -57.84,-45.17 -201.96,-32.22 -283.61,-31.53 -210.89,1.8 -422.19,-1.62 -633.09,-0.16 -52.33,0.36 -283.11,-6.9 -314.57,2.3z"/>
   <path class="fil0" d="M424.56 1607.22c28.4,24.44 165.07,3.76 226.47,12.16 1.94,12.82 -43.89,216 -50.39,251.77 -4.07,22.43 -10.8,38.01 -14.43,61.46 -6.75,43.49 -17.44,83.45 -26.73,126.31 -7.69,35.5 -9.9,36.74 3.28,64.89 20.78,1.81 151.98,1.28 162.2,-3.74 15.46,-6.98 14.11,-29.05 18.52,-55.05l79.24 -446.26c26.38,-5.91 75.55,-4.48 106.55,-3.24 34.75,1.4 75.87,-0.81 111.6,-1.07 36.75,-0.26 39.12,-31.93 45.48,-65.73 5.15,-27.37 19.37,-66.72 22.12,-90.19 -30.37,-15.86 -152.1,-6.19 -198.29,-6.17 -125.19,0.05 -307.67,3.44 -426.38,-1.03 -38.6,-1.45 -35.72,8.97 -46.1,62.43 -4.19,21.6 -14.63,74.15 -13.13,93.45z"/>
   <path class="fil0" d="M5685.4 1465.15c74.32,0.2 187.96,-4.86 245.58,14.99 118.81,40.94 90.65,171.77 -9.96,201.27 -37.46,10.99 -127.88,15.23 -170.15,10.5 -8.48,-20.99 26.95,-138.48 22.76,-175.31 -27.14,-1.64 -135.72,-9.39 -149.78,1.2 -14.02,17.31 -17.93,103.44 -24.56,134.56 -5.48,25.69 -21.5,117.91 -19.09,141.16 21.04,13.47 27.18,9.02 67.03,8.9l197.25 -0.11c168.75,-0.7 320.97,-69.94 322.19,-235.66 0.64,-86.99 -48,-141.67 -104.16,-173.45 -97.55,-55.2 -261.26,-42.96 -380.28,-42.89 -36.74,0.02 -34.87,10.77 -42.93,62.47 -7.91,50.76 -6.84,52.22 46.11,52.37z"/>
   <path class="fil2" d="M436.09 1607.81l207.14 -1.22c39.06,2.15 15.18,26.05 -2.87,126 -11.38,63 -77.3,346.56 -76.98,382.22 28.91,-3.58 154.85,-2.11 159.87,-6.8 6.83,-6.37 70.32,-407.09 84,-479.17 6.53,-34.41 32.67,-25.54 80.66,-25.69l172.3 -0.01 37.81 -141.13 -635.51 0.81c-13.23,5.44 -26.65,130.96 -26.41,144.98z"/>
   <path class="fil0" d="M3618.22 1801.33l101.11 0.93c56.99,-0.19 49.95,-12.62 56.87,-67.04 16.89,-132.98 -2.81,-110.04 89.47,-110.15l133.53 -0.92c0.41,34.41 -31.52,155.63 -18.36,174.74 8.02,7.41 57.39,3.34 75.71,3.39 83.29,0.24 66.56,7.64 81.22,-71.5 19.52,-105.46 32.41,-222.5 52.4,-336.13 6.91,-39.29 15.41,-44.37 -31.81,-44.4l-108.31 -0.14c-15.25,23.66 -24.93,120.71 -32.58,164.72l-209.57 0.96 15.83 -95.56c12.51,-82.32 34.59,-70.43 -120.31,-69.88 -37.17,0.13 -32.52,28.71 -40.87,92.42l-35.37 238.7c-7.83,37.34 -18.61,82.65 -8.96,119.85z"/>
   <path class="fil0" d="M4334.83 1800.45c8.74,-7.66 6.29,-1.64 10.01,-15.56l11.04 -68.45c3.95,-30.05 10.29,-61.68 13.11,-91.77l213.25 0.18 -19.8 129.22c-1.4,7.28 -5.73,26.46 -2.84,34.7 3.06,8.69 -2.52,3.46 6.04,6.87 2.94,7.56 0.94,7.11 28.48,6.76l104.99 -0.38c5.7,-10.69 6.56,-6.65 10.06,-21.75l29.74 -200.1c4.44,-34 39.1,-210.48 30.18,-226.65 -6.53,-6.53 -100.84,-3.85 -121.05,-3.45 -16.87,0.33 -22.81,1.84 -28.03,16.49l-23.39 148.37 -211.26 0.88c3.85,-33.78 30.64,-141.19 19.87,-164.11l-144.39 -1.47c-4.86,11.75 -2.99,2.39 -6.29,13.73 -1.45,5 -2.26,13.48 -3.31,18.85l-58.93 398.43c-1.76,27.81 34.02,21 58.32,21.09 26.33,0.1 60.81,4.15 84.23,-1.85z"/>
   <path class="fil2" d="M1142.68 2201.95l1.88 19.67 23.3 0.64 176.42 -205.54c27.72,-33.23 58.78,-70.8 87.63,-103.25 16.7,-18.76 79.96,-99.77 88.78,-102.69 -3.59,-9 0.43,-3.36 -9.52,-5.48 -3.28,-0.7 -12.08,-0.39 -15.37,-0.41 -23.61,0.82 -145.97,3.94 -159.01,-2.74 -10.17,-11.48 101.27,-302.13 98.01,-343.01 -29.47,-7 -115.15,0.87 -152.62,-0.31 -12.69,25.28 -58.87,264.43 -66.26,273.49 -22.21,18.81 -205.41,-0.32 -249.87,8.65 -6.2,18.95 -28.64,134.78 -28.22,154.46 55.08,8.72 250.02,-7.66 279.06,0.8 5.99,19.35 -65.43,258.5 -74.21,305.74z"/>
   <path class="fil1" d="M5140.63 1597.66c-0.79,-15.78 3.22,-39.02 10.3,-52.12 6.44,-0.15 13.15,0.07 18.1,2.55 8.3,4.15 7.75,7.17 10.82,13.88l47.34 55.6c22.45,22.13 59.35,72.74 63.37,76.76 8.67,8.64 8.15,6.56 15.68,15.94 9.91,12.37 21.22,26.42 32.35,37.78 9.02,9.22 24.4,30.62 33.23,36.83 14.21,9.98 112.61,9.31 129.07,1.58 11.91,-9.9 44.18,-272.26 52.37,-320.11 2.36,-13.79 15.64,-83.37 14.19,-96.64 -0.08,-0.74 -0.48,-1.94 -0.59,-2.54 -0.1,-0.6 -0.75,-1.18 -0.85,-2.49 -0.85,-11.72 -118.1,-3.67 -124.8,2.15 -12.87,11.64 -11.94,47.2 -14.94,65.67l-18.77 136.83c-10.55,67.07 -12.04,31.94 -19.77,52.95 -7.6,-6.51 -14.35,-10.36 -20.88,-17.12 -6.17,-6.37 -12.23,-14.37 -17.57,-20.43l-33.47 -39.81c-5.37,-6.49 -11.8,-14.65 -17.21,-21.01l-84.19 -103.44c-7.78,-10.2 -11.27,-10.54 -19.06,-18.98 -29.99,-32.48 -13.65,-41.67 -69.83,-41.1 -21.56,0.22 -49.61,-4.4 -69.16,3.52 -7.51,34.35 -9.28,74.24 -16.24,108.14l-48.25 315.55c15.51,5.62 103.29,6.12 114.02,-1.51 9.3,-7.68 5.77,-5.15 8.45,-20.94 6.09,-35.88 26.81,-147.7 26.29,-167.48z"/>
   <path class="fil1" d="M5650.3 1448.95c42.41,28.07 312.66,-42.51 364.28,90.52 26.23,67.61 -28.19,127.08 -71.16,145 -42.7,17.8 -159.87,27.66 -203.73,12.6 -2.06,-51.13 23.99,-146.8 21.56,-170.74 -30.72,-5.33 -106.44,-7.12 -131.68,3.91 -3.76,14.78 -40.63,249.67 -39.77,255.93 18.37,11.26 159.08,5.49 191.05,5.22 64.85,-0.58 123.68,1.27 184.76,-14.6 31.16,-8.1 94.85,-33.85 119.29,-55.64 25.47,-22.72 40.35,-40.48 52.95,-71.13 10.49,-25.53 16.31,-54.87 16.71,-86.55 1.47,-120.43 -102.48,-182.12 -206.4,-195.89 -31.44,-4.17 -269.95,-14.23 -285.44,-1.95 -8.87,7.04 -17.75,69.61 -12.41,83.32z"/>
   <path class="fil0" d="M3368.35 1351.58c-89.25,7.02 -185.68,25.66 -247.91,90.22 -65.73,68.18 -89.78,174.7 -38.13,252.87 82.09,124.24 262.47,108.98 398.41,107.93 35.28,-0.28 60.86,5.82 71.11,-15.48 5.52,-11.48 11.81,-59.68 11.43,-74.23 -0.69,-26.11 -16.38,-21.73 -60.28,-21.24 -67.87,0.76 -187.75,7.11 -234.81,-20.58 -29.98,-17.64 -66.2,-58.09 -47.25,-112.64 13.45,-38.72 51.94,-66.43 91.06,-81.09 48.59,-18.22 175.34,-12.53 238.73,-12.51 37.39,0.01 51.39,6.09 54.7,-31.58 7.57,-86.25 33.58,-82.74 -67.43,-82.98 -53.74,-0.13 -117.32,-2.8 -169.63,1.31z"/>
   <path class="fil1" d="M3686.07 1365.52c-21.87,95.67 -29.45,235.48 -47.83,317.5 -2.96,13.19 -18.56,101.07 -11.18,106.96 11.3,3.87 112,-0.01 128.97,-2.27 5.29,-34.29 18.34,-151.91 34.36,-171.78l211.02 -1.14c15.34,20.28 5.65,51.2 -0.73,80.56 -3.53,16.23 -14.04,80.16 -10.82,93.71 34.45,1.84 118.83,12.52 128.78,-10.7 2.99,-6.99 50.54,-344.99 61.37,-390.9 6.5,-27.54 1.09,-20.9 -1.17,-23 -10.88,-9.65 -108.28,-4.63 -124.06,-0.28 -11.78,31.54 -15.07,139.56 -32.77,155.22 -13.54,11.98 -150.06,8.57 -178.67,8.69 -46.96,0.19 -51.85,2.88 -40.6,-43.64 5.8,-23.99 10.05,-57.98 12.09,-83.2 3.59,-44.2 17.84,-42.68 -38.25,-40.83 -30.02,0.98 -63.43,-1.59 -90.52,5.11z"/>
   <path class="fil1" d="M4206.75 1788.61c27.23,1.91 114.15,12.88 126.11,-9.48 1.04,-1.94 2.41,-7.32 2.93,-9.73 8.93,-40.59 13.53,-124.35 28.48,-152.73 31.41,-2.55 208.02,-7.14 224.57,2.99 4.07,34.12 -22.9,154.94 -16.43,164.82 9.17,11.83 39.69,6.09 59.96,6.3 74.32,0.75 62.54,4.07 72.42,-53.32 3.13,-18.19 5.14,-34.91 6.46,-53.11 2.53,-34.81 12.85,-70.34 17.74,-106.94 5.15,-38.6 11.78,-71.17 18.09,-106.41 3.93,-21.88 3.5,-44.95 10.72,-81.61 0.8,-4.04 2.44,-10.13 2.5,-13.9 0.02,-1.97 1.41,-6.04 -3.04,-14.27 -20.52,-4.52 -114.12,-3.4 -123.98,9.3 -6.7,8.64 -17.21,97.44 -22.06,117.87 -6.24,26.2 -0.26,33.56 -28.57,37.81 -17.33,2.62 -193.79,4.26 -201.6,-3.64 -19.04,-32.31 22.94,-117.23 14.8,-161.58l-112.38 -0.02c-17.17,1.52 -17.12,1.89 -19.97,18.48 -3.49,20.24 -7.18,46.22 -9.42,66.97 -2.76,25.51 -8.06,42.6 -11.72,67.67 -6.19,42.35 -9.2,97.04 -19.03,136.76 -5.57,22.51 -22.14,120.27 -16.57,137.77z"/>
   <path class="fil0" d="M2987.96 1695.72c-34.84,-13.22 -280.27,2.89 -317.65,-5.77 -43.16,-10 -34.03,-47 -11.13,-60.34 42.69,-24.89 285.72,4.2 309.44,-14.94 17.69,-14.27 20.21,-65.7 18.94,-92.65 -23.31,-15.96 -35.12,-9.85 -79.48,-9.7l-267.32 -0.23c-79.68,0.36 -137.79,40.98 -155.09,112.56 -6.05,25.04 -9.47,52.24 -3.11,77.86 30.06,121.1 179.31,99.54 256.9,100.11 59.26,0.43 118.88,0.04 178.16,-0.26 32.68,-0.17 58.77,5.61 64.45,-25.42 4.76,-25.98 11.74,-56.08 5.9,-81.23z"/>
   <path class="fil1" d="M3550.07 1704.17c-81.72,-18.52 -233.81,31.59 -317.57,-45.22 -19.95,-18.3 -30.52,-60.56 -23.64,-97.52 9.3,-50.04 80.52,-96.02 136.71,-103.78 76.34,-10.54 168,3.86 240.56,-5.7 7.01,-11.17 23.44,-66.49 14.52,-84.72 -5.15,-10.5 -28.71,-6.6 -41.35,-5.74 -17.5,1.2 -32.75,-0.53 -49.87,-0.81 -126.41,-2.02 -282.64,-2.87 -379.17,84.47 -76.28,69.01 -93.59,226.35 1.61,285.91 58.7,36.72 29.98,24.7 108.01,48.08 54.91,16.46 133.42,13.3 193.13,12.43 108.62,-1.57 107.31,10.65 114.11,-37.76 2.78,-19.85 8.92,-29.09 2.95,-49.66z"/>
   <path class="fil1" d="M2968.47 1788.36c3.15,-22.45 14.93,-65.76 9.63,-84.76 -26.15,-6.1 -149.14,-1.04 -187.73,-1.36 -45.42,-0.36 -155.48,19.63 -159.65,-36.95 -4.8,-65.1 85.7,-56.08 137.37,-56.01 40.91,0.06 165.47,4.58 195.06,-3.14 7.39,-17.06 13.01,-46.11 13.83,-69.75 0.79,-22.63 -21.97,-16.07 -65.73,-14.92 -63.63,1.67 -278.28,-5.94 -322.82,8.38 -49.37,15.87 -69.99,39.6 -86.4,82.87 -41.25,108.75 30.39,176.85 132.44,178.84 111.15,2.16 223.72,-1.18 334,-3.19z"/>
   <path class="fil0" d="M4775.61 1795.64c3.71,9.58 -7.2,4.65 12.29,6.9l102.17 -0.31c38.4,-0.04 28.86,-19.81 42.2,-94.84 6.82,-38.3 10.27,-80.21 18.36,-118.16 12.27,-57.54 19.22,-142.09 31.88,-207.01 3.03,-15.54 5.07,-27.26 -10.18,-31.38l-110.9 -0.59c-29.39,-0.02 -26.22,9.85 -30.71,36.59 -3.24,19.28 -5.84,37.54 -9,57.13l-50.61 325.11c-7.09,33.05 0.83,25.1 4.5,26.55z"/>
   <path class="fil0" d="M1978.66 1352.33c-18.01,7.35 -21.29,39.91 -24.82,61.86 -7.02,43.59 2.03,44.89 41.16,44.93 76.11,0.09 506.59,3.06 520.56,-1.85 18.65,-6.57 18.83,-41.49 21.01,-65.56 3.45,-38.09 0.61,-42.06 -38.83,-41.51 -77.37,1.07 -505.5,-3.43 -519.08,2.12z"/>
   <path class="fil1" d="M4783.32 1787.93c18.19,4.52 106.45,5.46 120.42,-1.76 10.86,-8.58 46.05,-269.35 52.87,-315.45 4.33,-29.26 16.72,-79.32 15.35,-106.84 -22.46,-6.19 -48.94,-3.23 -72.35,-3.2 -79.08,0.1 -46.74,-7.48 -77.82,156.75 -5.84,30.85 -41.3,252.44 -38.46,270.5z"/>
   <path class="fil3" d="M2513.59 1449.75c12.9,-13.92 14.26,-46.97 15.37,-68.12 1.56,-29.82 -14.97,-23 -59.92,-22.39 -73.07,0.99 -477.41,-5.27 -491.6,5.24 -9.82,7.29 -15.62,49.44 -16.81,66.28 -1.89,26.77 16.83,21.39 59.84,21.28 75.7,-0.2 476.3,3.51 493.11,-2.29z"/>
   <path class="fil0" d="M2001.35 1935.7c1.7,4.31 -2.94,6.94 22.06,6.54 9.69,-0.15 19.18,-0.24 28.88,-0.22l3706.28 -0.04c37.45,0.05 40.42,5.11 47.59,-12.5 -316.59,-3.16 -634.33,1.05 -951.1,0.11 -318.09,-0.94 -636.3,-0.21 -954.4,-0.2l-1889.76 -0.02c-15.27,3.14 -2.5,-0.96 -9.55,6.31z"/>
   <path class="fil0" d="M2666.29 1459.2l305.41 0.1c31,-0.21 54.24,7.46 62,-21.71 4.28,-16.1 10.73,-57.35 8.04,-74.53 -8.13,-18.22 -46.29,-12.7 -73.23,-12.65 -73.48,0.16 -254.64,-3.01 -318.32,0.19 -26.42,1.33 -33.5,5.47 -39.57,29.88 -3.27,13.17 -8.52,53.07 -5.8,65.5 3.98,18.24 27.93,13.17 61.46,13.22z"/>
   <path class="fil0" d="M2163.63 1802.19l111.96 -0.14c11.21,-14.64 10.39,-11.74 13.67,-36.54 7.15,-54.28 33.3,-186.11 35.04,-227.89 1.49,-35.81 -51.65,-25.04 -81.13,-25.3 -65.66,-0.58 -66.44,-3.13 -74.44,30.67l-34.22 233.75c-0.79,25.43 5.53,25.43 29.13,25.44z"/>
   <path class="fil3" d="M2613.38 1447.78c14.81,7.03 370.77,8.76 399.44,2.62 15.22,-10.76 16.13,-40.86 19.68,-58.89 7.57,-38.47 -6.57,-33.32 -41.7,-32.42l-311.78 0.64c-22.81,-0.2 -52.15,-6.65 -59.81,17.04 -4.6,14.26 -8.48,56.28 -5.83,71.02z"/>
   <path class="fil1" d="M2147.06 1786.07c7.38,5.52 18.76,5.04 29.26,5.02 11.78,-0.03 23.3,0.26 35.04,0.39 20.1,0.21 46.93,-1.88 66.03,-3.71 5.63,-62.65 23.67,-174.09 34.77,-241.82 3.42,-20.88 1.35,-23.78 -17.7,-24.29 -15.41,-0.41 -32.47,0.19 -48.11,0.16 -53,-0.07 -66.24,-22.08 -79.85,105.5 -2.7,25.31 -23.58,147.33 -19.45,158.76z"/>
   <path class="fil0" d="M5149.74 1597.34l-1.27 -22.24c-0.03,-1.07 -0.41,-1.4 -0.98,-2.11l-6.87 24.67c0.53,19.78 -20.2,131.6 -26.29,167.48 -2.68,15.79 0.85,13.26 -8.45,20.94 -10.73,7.63 -98.51,7.13 -114.02,1.51l48.25 -315.55c6.96,-33.9 8.73,-73.8 16.24,-108.14 19.56,-7.92 47.61,-3.31 69.16,-3.52 56.18,-0.57 39.84,8.62 69.83,41.1 7.79,8.44 11.28,8.78 19.06,18.98l84.19 103.44c5.41,6.36 11.84,14.52 17.21,21.01l33.47 39.81c5.34,6.06 11.4,14.06 17.57,20.43 6.54,6.76 13.28,10.61 20.88,17.12 7.73,-21 9.22,14.12 19.77,-52.95l18.77 -136.83c3,-18.47 2.07,-54.03 14.94,-65.67 6.7,-5.82 123.95,-13.87 124.8,-2.15 0.1,1.31 0.75,1.89 0.85,2.49 0.11,0.59 0.5,1.8 0.59,2.54 1.45,13.26 -11.83,82.85 -14.19,96.64 -8.19,47.85 -40.47,310.21 -52.37,320.11 -16.46,7.73 -114.86,8.4 -129.07,-1.58 -8.83,-6.21 -24.2,-27.61 -33.23,-36.83 -11.13,-11.36 -22.43,-25.41 -32.35,-37.78 -7.52,-9.39 -7.01,-7.3 -15.68,-15.94 -4.01,-4.01 -40.92,-54.63 -63.37,-76.76l-47.34 -55.6 -7.97 0.23c3.34,13.9 49.78,66.47 61.87,80.71 11.01,12.97 21.39,24.85 32.32,37.81 19.31,22.93 87.76,103.32 101.76,114.33 15.96,12.56 30.28,7.19 66.25,7.28 22.39,0.06 50.52,1.34 72.24,-1.19 13.18,-20.24 9.9,-15.31 14.83,-48.88l26.05 -168.49c6.93,-44.68 35.28,-190.29 29.99,-227.02 -11.03,-5 -2.12,-6.82 -31.65,-6.6l-95.8 -0.07c-28.17,0.55 -23.27,6.75 -26.96,30.38 -1.86,11.91 -4.04,18.95 -5.41,32.83l-29.04 199.76c-8.89,-4.79 -11.37,-8.48 -16.37,-16.11 -5.91,-9.03 -9.57,-13.49 -16.55,-21.68l-170.17 -205.24c-13.67,-19.44 -21.56,-20.16 -53.38,-19.88 -25.43,0.22 -50.85,0.06 -76.29,0.3 -4.39,7.32 -10.08,10.36 -12.41,19.52l-46.92 312.61c-11.99,73.26 -30.96,116.67 1.78,119.76l70.19 -0.09c46.19,0.1 52.57,7.57 58.19,-37.72 4.38,-35.31 27.13,-139.92 23.33,-167.18z"/>
   <path class="fil0" d="M1134.31 2198.49l1.91 10.81c5.57,-13.87 0.18,-1.25 6.46,-7.35 8.78,-47.25 80.2,-286.4 74.21,-305.74 -29.04,-8.45 -223.98,7.93 -279.06,-0.8 -0.41,-19.69 22.02,-135.51 28.22,-154.46 44.46,-8.97 227.65,10.16 249.87,-8.65 7.39,-9.06 53.57,-248.21 66.26,-273.49 37.47,1.19 123.15,-6.69 152.62,0.31 3.26,40.88 -108.18,331.54 -98.01,343.01 13.04,6.68 135.4,3.56 159.01,2.74 0.96,-0.51 2.36,-2.13 3.01,-1.23 0.65,0.9 2.12,-0.89 3.03,-1.12l19.44 -1.9c-21.97,-14.87 -142.2,-2.66 -159.26,-6.61l-7.88 -3.28c-11.56,-5.42 39.46,-146.5 45.06,-161.32 9.68,-25.65 48.24,-147.39 45.7,-170.88 -18.42,-15.46 -53.81,-9.39 -79.78,-8.44 -28.57,1.03 -61.46,-4.32 -89.45,-0.9 -15.5,30.41 -26.54,99.02 -36.49,137.62 -6.04,23.42 -11.29,46.2 -16.8,69.09 -4.35,18.05 -5.77,60.28 -20.3,69.75 -12.45,8.24 -188.51,1.38 -221.9,3.95 -21.29,1.64 -23.84,8.66 -28.28,27.85 -7.15,30.9 -27.4,121.08 -22.4,143.42 32.4,17.04 90.94,8.16 133.39,9.41 45.38,1.34 99.44,0.63 139.34,-5.68 4.57,28.37 -27.55,112.16 -34.12,145.68 -7.74,39.49 -33.53,114.81 -33.79,148.2z"/>
   <path class="fil0" d="M1167.85 2222.25l-2.02 7c19.97,-3.29 23.66,-15.73 50.55,-44.61 22.18,-23.81 19.69,-28.02 45.41,-53.18 9.02,-8.82 13.77,-15.4 22.19,-25.39l110.28 -131.59c14.34,-17.84 32.64,-35.06 46.59,-52.09l86.2 -110.71c-4.42,-5.1 2.59,-2.24 -6.37,-0.91 -8.81,2.93 -72.08,83.93 -88.78,102.69 -28.86,32.45 -59.92,70.02 -87.63,103.25l-176.42 205.54z"/>
   <path class="fil4" d="M5140.63 1597.66l6.87 -24.67c0.56,0.71 0.95,1.04 0.98,2.11l1.27 22.24c6.21,-8.71 6.35,-27.38 8.03,-40.29l14.11 5.14 7.97 -0.23c-3.07,-6.71 -2.53,-9.72 -10.82,-13.88 -4.94,-2.47 -11.66,-2.69 -18.1,-2.55 -7.08,13.11 -11.09,36.34 -10.3,52.12z"/>
   <path class="fil4" d="M1165.84 2229.26l2.02 -7 -23.3 -0.64 -1.88 -19.67c-6.28,6.1 -0.89,-6.52 -6.46,7.35l-1.91 -10.81c-10.52,4.04 -1.14,21.66 2.63,25.78 7.48,8.19 19.13,13.69 28.89,4.99z"/>
   <path class="fil5" d="M2016.42 2252.3c-9.65,0 -17.93,-0.83 -25.1,-2.21 -7.45,-1.38 -14.34,-3.59 -20.69,-6.62l0 -24.28c5.52,3.04 12.14,5.52 19.86,8 7.44,2.48 16.27,3.59 26.2,3.59 6.34,0 12.13,-0.55 17.65,-1.93 5.52,-1.38 10.48,-3.58 14.62,-6.62 4.14,-3.04 7.44,-6.9 9.93,-11.59 2.48,-4.69 3.86,-9.93 3.86,-16.27 0,-4.97 -1.1,-9.38 -3.04,-13.24 -2.2,-3.86 -5.79,-7.72 -10.48,-11.59 -4.69,-3.59 -11.04,-7.72 -19.03,-12.14 -6.9,-4.14 -13.24,-8.55 -18.76,-12.96 -5.24,-4.69 -9.65,-9.93 -12.69,-15.72 -3.04,-6.07 -4.41,-13.24 -4.41,-21.79 0,-9.1 1.65,-17.38 5.24,-24.28 3.31,-6.89 8,-12.96 14.07,-17.93 5.79,-4.96 12.69,-8.55 20.69,-11.03 7.72,-2.48 16,-3.86 24.82,-3.86 10.2,0 19.31,1.1 27.03,3.04 8,1.93 15.45,4.96 22.34,8.55l-9.38 20.96c-4.69,-2.48 -10.76,-4.96 -17.93,-7.44 -7.17,-2.21 -14.62,-3.31 -22.07,-3.31 -5.79,0 -11.03,0.83 -15.72,2.21 -4.69,1.38 -8.55,3.58 -11.86,6.62 -3.59,3.04 -6.35,6.62 -8.28,10.76 -1.93,4.14 -2.76,8.83 -2.76,14.07 0,5.52 1.11,10.2 3.04,14.07 1.93,3.59 5.24,7.17 9.38,10.2 4.14,3.04 9.38,6.34 15.72,10.2 8,4.69 14.89,9.38 20.69,14.07 6.07,4.69 10.76,9.93 14.07,16 3.58,6.07 5.24,13.52 5.24,22.62 0,9.93 -1.66,18.48 -5.24,25.93 -3.31,7.45 -8.28,13.79 -14.62,18.76 -6.34,4.96 -13.79,8.83 -22.89,11.31 -8.83,2.48 -18.76,3.86 -29.52,3.86z"/>
   <path id="_1" class="fil5" d="M2173.09 2251.75c-11.31,0 -21.24,-2.2 -29.51,-6.89 -8.28,-4.69 -14.62,-11.04 -19.04,-19.58 -4.41,-8.55 -6.62,-18.76 -6.62,-30.34 0,-9.1 1.1,-17.93 3.04,-27.03 1.93,-9.1 4.96,-17.93 9.1,-25.93 3.86,-8 8.83,-15.45 14.62,-21.79 5.79,-6.35 12.69,-11.31 20.69,-14.89 8,-3.59 16.82,-5.52 26.48,-5.52 11.58,0 21.51,2.21 29.51,6.9 8.28,4.69 14.62,11.31 19.04,19.86 4.41,8.55 6.62,18.48 6.62,30.34 0,9.1 -1.1,17.93 -3.04,27.03 -1.93,9.1 -4.96,17.65 -9.1,25.65 -3.86,8.28 -8.83,15.44 -14.62,21.79 -5.79,6.34 -12.69,11.31 -20.69,14.89 -8,3.59 -16.82,5.52 -26.48,5.52zm1.38 -20.13c5.24,0 10.2,-1.1 14.89,-3.31 4.69,-2.2 9.1,-5.52 13.24,-9.93 4.14,-4.14 7.45,-9.38 10.2,-15.72 3.04,-6.34 5.24,-13.79 6.9,-21.79 1.65,-8 2.48,-17.1 2.48,-26.76 0,-5.52 -0.83,-11.04 -2.76,-16.28 -1.93,-5.24 -5.24,-9.38 -9.65,-12.69 -4.41,-3.59 -10.21,-5.24 -17.65,-5.24 -6.07,0 -11.59,1.38 -16.83,3.86 -5.24,2.48 -9.65,6.07 -13.79,10.76 -4.14,4.69 -7.45,10.48 -10.48,16.83 -2.76,6.34 -4.96,13.24 -6.34,20.69 -1.38,7.44 -2.21,15.44 -2.21,23.72 0,11.31 2.76,20.13 8.28,26.48 5.8,6.34 13.52,9.38 23.72,9.38z"/>
   <path id="_2" class="fil5" d="M2246.74 2315.74c-3.59,0 -6.62,-0.28 -9.65,-0.83 -3.04,-0.55 -5.52,-1.11 -8,-1.93l0 -20.41c2.48,0.83 4.96,1.38 7.45,1.93 2.48,0.83 4.96,1.1 8,1.1 6.62,0 11.86,-2.76 15.44,-8.28 3.59,-5.24 6.62,-12.96 8.83,-23.17l30.34 -143.98 -25.65 0 1.93 -10.2 27.59 -9.1 3.03 -13.24c2.21,-9.38 4.69,-17.1 7.72,-23.45 3.04,-6.34 6.35,-11.58 10.2,-15.44 4.14,-3.59 8.83,-6.35 14.07,-7.72 5.24,-1.65 11.31,-2.48 18.2,-2.48 4.69,0 9.38,0.55 14.07,1.65 4.96,0.83 8.83,2.2 11.86,3.59l-6.34 18.48c-2.48,-0.83 -5.52,-1.65 -8.55,-2.48 -3.04,-0.83 -6.34,-1.38 -9.93,-1.38 -7.17,0 -12.69,1.93 -16.83,6.07 -4.14,4.14 -7.72,11.86 -10.2,23.17l-3.31 14.07 31.72 0 -3.59 18.48 -31.72 0 -30.89 146.74c-2.2,10.2 -5.24,18.76 -9.1,26.2 -3.59,7.44 -8.55,12.96 -14.62,16.83 -5.79,3.86 -13.24,5.79 -22.07,5.79z"/>
   <path id="_3" class="fil5" d="M2398.73 2252.3c-9.93,0 -18.2,-2.48 -25.1,-7.17 -6.9,-4.69 -10.2,-13.24 -10.2,-25.1 0,-2.76 0.28,-5.79 0.55,-9.1 0.55,-3.58 1.1,-6.89 1.93,-10.48l16.83 -80.27 -22.89 0 2.2 -11.04 24.83 -10.48 17.1 -30.62 14.34 0 -7.45 33.65 37.24 0 -3.86 18.48 -36.96 0 -17.1 80.54c-0.56,2.48 -1.11,5.24 -1.66,8.28 -0.55,3.04 -0.83,5.79 -0.83,8.28 0,4.14 1.1,7.72 3.31,10.76 2.48,3.04 6.07,4.41 11.31,4.41 3.31,0 6.62,-0.28 9.65,-0.83 3.04,-0.83 6.35,-1.65 9.93,-2.76l0 18.48c-2.21,1.1 -5.52,2.2 -10.21,3.31 -4.69,1.1 -8.83,1.66 -12.96,1.66z"/>
   <path id="_4" class="fil5" d="M2461.07 2249.54l-6.07 -147.85 23.72 0 2.2 78.89c0.28,10.21 0.28,19.31 0,27.59 -0.28,8 -0.83,14.89 -1.1,20.13l1.1 0c1.38,-3.86 3.31,-8.28 5.24,-13.52 1.93,-5.24 4.13,-10.48 6.34,-15.72 2.48,-5.24 4.41,-9.93 6.34,-13.79l38.89 -83.58 26.2 0 4.69 79.17c0.28,6.89 0.28,14.62 0.55,23.72 0.28,8.83 0,16.83 -0.28,23.72l1.1 0c1.66,-4.69 3.59,-10.2 5.52,-16 2.2,-5.8 4.69,-11.86 7.44,-18.2 2.48,-6.62 5.24,-13.24 8.28,-19.86l32.27 -72.54 25.65 0 -68.41 147.85 -29.24 0 -4.14 -79.99c-0.28,-4.96 -0.28,-9.65 -0.55,-14.07 0,-4.69 0,-9.38 0,-14.34 0.28,-4.96 0.28,-10.21 0.28,-16l-1.1 0c-1.65,4.41 -3.31,8.55 -4.96,12.69 -1.38,4.14 -3.31,8.28 -5.24,12.96 -1.93,4.41 -4.41,9.65 -7.45,16l-38.62 82.75 -28.69 0z"/>
   <path id="_5" class="fil5" d="M2691.94 2252.3c-8,0 -14.89,-1.93 -20.96,-5.52 -5.79,-3.86 -10.48,-9.65 -14.07,-17.1 -3.31,-7.45 -4.96,-16.83 -4.96,-27.86 0,-11.03 1.1,-21.52 3.59,-31.72 2.2,-10.2 5.52,-19.86 9.65,-28.41 4.14,-8.55 9.38,-16 15.17,-22.34 6.07,-6.35 12.69,-11.31 20.14,-14.9 7.45,-3.58 15.44,-5.52 24,-5.52 6.35,0 12.14,1.1 16.83,3.59 4.96,2.48 9.1,5.52 12.41,9.38 3.31,3.86 6.07,8 8,12.69l1.38 0 8.83 -22.89 18.48 0 -31.44 147.85 -19.31 0 3.58 -27.31 -1.1 0c-4.14,5.24 -8.83,10.2 -14.07,14.89 -5.24,4.69 -10.76,8.28 -16.83,11.04 -5.79,2.76 -12.41,4.14 -19.31,4.14zm8 -20.14c6.89,0 13.52,-2.48 19.86,-7.45 6.62,-4.96 12.69,-11.58 17.93,-20.13 5.24,-8.55 9.38,-17.93 12.14,-28.41 1.38,-5.24 2.48,-10.21 2.76,-14.62 0.55,-4.69 0.83,-8.83 0.83,-12.69 0,-8.55 -2.48,-15.72 -7.17,-21.24 -4.69,-5.52 -11.31,-8.28 -19.31,-8.28 -5.79,0 -11.04,1.38 -16.28,4.41 -4.96,3.03 -9.65,7.17 -13.79,12.41 -4.14,5.24 -7.72,11.31 -10.76,18.2 -3.04,6.89 -5.24,14.62 -6.9,22.89 -1.65,8 -2.48,16.55 -2.48,25.1 0,9.93 1.93,17.38 6.07,22.34 4.14,4.97 9.65,7.45 17.1,7.45z"/>
   <path id="_6" class="fil5" d="M2803.11 2249.54l31.44 -147.85 19.86 0 -3.03 27.31 1.38 0c3.86,-5.24 8,-9.93 12.14,-14.62 4.14,-4.41 9.1,-8 14.34,-11.04 5.24,-3.04 11.58,-4.41 18.48,-4.41 2.48,0 5.24,0.28 8,0.55 3.03,0.28 5.52,0.55 8,1.38l-5.24 21.79c-2.48,-0.55 -4.69,-0.83 -6.89,-1.1 -2.48,-0.28 -4.69,-0.55 -7.17,-0.55 -6.89,0 -12.96,1.65 -18.76,5.24 -5.79,3.59 -11.03,8.55 -15.72,14.35 -4.41,5.79 -8.28,12.41 -11.31,19.58 -3.04,7.17 -5.52,14.34 -6.9,21.79l-14.34 67.58 -24.27 0z"/>
   <path id="_7" class="fil5" d="M2966.4 2252.3c-11.31,0 -21.24,-2.21 -29.24,-6.62 -8,-4.69 -13.79,-11.03 -17.93,-19.31 -4.14,-8.55 -6.34,-18.48 -6.34,-29.79 0,-11.86 1.65,-23.44 4.96,-35.03 3.59,-11.31 8.55,-21.79 14.89,-31.17 6.35,-9.65 14.07,-17.1 23.17,-22.89 9.1,-5.79 19.58,-8.55 30.89,-8.55 14.07,0 24.55,3.04 31.44,9.1 7.17,6.07 10.76,14.62 10.76,25.38 0,7.17 -1.65,14.07 -4.96,20.41 -3.31,6.35 -8.55,11.86 -15.45,16.55 -6.89,4.69 -16,8.55 -26.76,11.31 -10.76,2.48 -24,3.86 -39.17,3.86l-4.69 0c-0.28,1.65 -0.28,3.31 -0.56,5.24 0,1.93 0,3.59 0,4.96 0,11.31 2.76,20.13 8.28,26.76 5.52,6.34 13.79,9.65 25.1,9.65 6.9,0 13.52,-1.1 19.86,-3.04 6.35,-1.93 12.96,-4.69 20.41,-8.27l0 20.69c-6.9,3.04 -13.79,5.8 -20.69,7.72 -6.62,1.93 -14.62,3.04 -24,3.04zm-22.89 -86.34c11.03,0 21.24,-0.83 30.62,-2.76 9.38,-1.93 16.83,-5.24 22.62,-9.66 5.79,-4.69 8.55,-10.76 8.55,-18.2 0,-4.69 -1.66,-8.55 -4.96,-11.58 -3.04,-3.04 -8,-4.69 -14.9,-4.69 -5.79,0 -11.58,1.93 -17.38,5.52 -5.79,3.59 -10.76,9.1 -15.44,16 -4.69,6.89 -8.28,15.44 -11.04,25.37l1.93 0z"/>
   <polygon id="_8" class="fil5" points="3150.93,2249.54 3187.89,2074.39 3133.83,2074.39 3138.52,2052.6 3271.47,2052.6 3267.06,2074.39 3212.99,2074.39 3175.76,2249.54 "/>
   <path id="_9" class="fil5" d="M3278.37 2252.3c-8,0 -14.89,-1.93 -20.96,-5.52 -5.79,-3.86 -10.48,-9.65 -14.07,-17.1 -3.31,-7.45 -4.96,-16.83 -4.96,-27.86 0,-11.03 1.1,-21.52 3.59,-31.72 2.2,-10.2 5.52,-19.86 9.65,-28.41 4.14,-8.55 9.38,-16 15.17,-22.34 6.07,-6.35 12.69,-11.31 20.14,-14.9 7.45,-3.58 15.44,-5.52 24,-5.52 6.35,0 12.14,1.1 16.83,3.59 4.96,2.48 9.1,5.52 12.41,9.38 3.31,3.86 6.07,8 8,12.69l1.38 0 8.83 -22.89 18.48 0 -31.44 147.85 -19.31 0 3.58 -27.31 -1.1 0c-4.14,5.24 -8.83,10.2 -14.07,14.89 -5.24,4.69 -10.76,8.28 -16.83,11.04 -5.79,2.76 -12.41,4.14 -19.31,4.14zm8 -20.14c6.89,0 13.52,-2.48 19.86,-7.45 6.62,-4.96 12.69,-11.58 17.93,-20.13 5.24,-8.55 9.38,-17.93 12.14,-28.41 1.38,-5.24 2.48,-10.21 2.76,-14.62 0.55,-4.69 0.83,-8.83 0.83,-12.69 0,-8.55 -2.48,-15.72 -7.17,-21.24 -4.69,-5.52 -11.31,-8.28 -19.31,-8.28 -5.79,0 -11.04,1.38 -16.28,4.41 -4.96,3.03 -9.65,7.17 -13.79,12.41 -4.14,5.24 -7.72,11.31 -10.76,18.2 -3.04,6.89 -5.24,14.62 -6.9,22.89 -1.65,8 -2.48,16.55 -2.48,25.1 0,9.93 1.93,17.38 6.07,22.34 4.14,4.97 9.65,7.45 17.1,7.45z"/>
   <path id="_10" class="fil5" d="M3389.53 2249.54l31.44 -147.85 24.27 0 -31.44 147.85 -24.27 0zm51.03 -172.4c-3.86,0 -7.17,-1.1 -9.65,-3.31 -2.48,-2.48 -3.59,-5.52 -3.59,-9.66 0,-3.03 0.55,-6.07 1.93,-8.55 1.38,-2.76 3.03,-4.96 5.52,-6.62 2.48,-1.65 5.24,-2.48 8.83,-2.48 4.14,0 7.45,1.11 9.65,3.31 1.93,2.21 3.04,5.24 3.04,9.1 0,5.79 -1.66,10.2 -4.96,13.52 -3.31,3.04 -6.9,4.69 -10.76,4.69z"/>
   <polygon id="_11" class="fil5" points="3460.42,2249.54 3505.1,2039.91 3529.37,2039.91 3484.69,2249.54 "/>
   <path id="_12" class="fil5" d="M3592.54 2251.75c-11.31,0 -21.24,-2.2 -29.51,-6.89 -8.28,-4.69 -14.62,-11.04 -19.04,-19.58 -4.41,-8.55 -6.62,-18.76 -6.62,-30.34 0,-9.1 1.1,-17.93 3.04,-27.03 1.93,-9.1 4.96,-17.93 9.1,-25.93 3.86,-8 8.83,-15.45 14.62,-21.79 5.79,-6.35 12.69,-11.31 20.69,-14.89 8,-3.59 16.82,-5.52 26.48,-5.52 11.58,0 21.51,2.21 29.51,6.9 8.28,4.69 14.62,11.31 19.04,19.86 4.41,8.55 6.62,18.48 6.62,30.34 0,9.1 -1.1,17.93 -3.04,27.03 -1.93,9.1 -4.96,17.65 -9.1,25.65 -3.86,8.28 -8.83,15.44 -14.62,21.79 -5.79,6.34 -12.69,11.31 -20.69,14.89 -8,3.59 -16.82,5.52 -26.48,5.52zm1.38 -20.13c5.24,0 10.2,-1.1 14.89,-3.31 4.69,-2.2 9.1,-5.52 13.24,-9.93 4.14,-4.14 7.45,-9.38 10.2,-15.72 3.04,-6.34 5.24,-13.79 6.9,-21.79 1.65,-8 2.48,-17.1 2.48,-26.76 0,-5.52 -0.83,-11.04 -2.76,-16.28 -1.93,-5.24 -5.24,-9.38 -9.65,-12.69 -4.41,-3.59 -10.21,-5.24 -17.65,-5.24 -6.07,0 -11.59,1.38 -16.83,3.86 -5.24,2.48 -9.65,6.07 -13.79,10.76 -4.14,4.69 -7.45,10.48 -10.48,16.83 -2.76,6.34 -4.96,13.24 -6.34,20.69 -1.38,7.44 -2.21,15.44 -2.21,23.72 0,11.31 2.76,20.13 8.28,26.48 5.8,6.34 13.52,9.38 23.72,9.38z"/>
   <path id="_13" class="fil5" d="M3687.15 2249.54l31.44 -147.85 19.86 0 -3.03 27.31 1.38 0c3.86,-5.24 8,-9.93 12.14,-14.62 4.14,-4.41 9.1,-8 14.34,-11.04 5.24,-3.04 11.58,-4.41 18.48,-4.41 2.48,0 5.24,0.28 8,0.55 3.03,0.28 5.52,0.55 8,1.38l-5.24 21.79c-2.48,-0.55 -4.69,-0.83 -6.89,-1.1 -2.48,-0.28 -4.69,-0.55 -7.17,-0.55 -6.89,0 -12.96,1.65 -18.76,5.24 -5.79,3.59 -11.03,8.55 -15.72,14.35 -4.41,5.79 -8.28,12.41 -11.31,19.58 -3.04,7.17 -5.52,14.34 -6.9,21.79l-14.34 67.58 -24.27 0z"/>
   <path id="_14" class="fil5" d="M3850.44 2252.3c-11.31,0 -21.24,-2.21 -29.24,-6.62 -8,-4.69 -13.79,-11.03 -17.93,-19.31 -4.14,-8.55 -6.34,-18.48 -6.34,-29.79 0,-11.86 1.65,-23.44 4.96,-35.03 3.59,-11.31 8.55,-21.79 14.89,-31.17 6.35,-9.65 14.07,-17.1 23.17,-22.89 9.1,-5.79 19.58,-8.55 30.89,-8.55 14.07,0 24.55,3.04 31.44,9.1 7.17,6.07 10.76,14.62 10.76,25.38 0,7.17 -1.65,14.07 -4.96,20.41 -3.31,6.35 -8.55,11.86 -15.45,16.55 -6.89,4.69 -16,8.55 -26.76,11.31 -10.76,2.48 -24,3.86 -39.17,3.86l-4.69 0c-0.28,1.65 -0.28,3.31 -0.56,5.24 0,1.93 0,3.59 0,4.96 0,11.31 2.76,20.13 8.28,26.76 5.52,6.34 13.79,9.65 25.1,9.65 6.9,0 13.52,-1.1 19.86,-3.04 6.35,-1.93 12.96,-4.69 20.41,-8.27l0 20.69c-6.9,3.04 -13.79,5.8 -20.69,7.72 -6.62,1.93 -14.62,3.04 -24,3.04zm-22.89 -86.34c11.03,0 21.24,-0.83 30.62,-2.76 9.38,-1.93 16.83,-5.24 22.62,-9.66 5.79,-4.69 8.55,-10.76 8.55,-18.2 0,-4.69 -1.66,-8.55 -4.96,-11.58 -3.04,-3.04 -8,-4.69 -14.9,-4.69 -5.79,0 -11.58,1.93 -17.38,5.52 -5.79,3.59 -10.76,9.1 -15.44,16 -4.69,6.89 -8.28,15.44 -11.04,25.37l1.93 0z"/>
   <path id="_15" class="fil5" d="M3974.57 2252.3c-8,0 -14.89,-1.93 -20.96,-5.52 -5.79,-3.86 -10.48,-9.65 -14.07,-17.1 -3.31,-7.45 -4.96,-16.55 -4.96,-27.86 0,-10.76 1.1,-21.24 3.31,-31.44 1.93,-10.2 5.24,-19.31 9.38,-27.86 4.14,-8.55 9.1,-16.28 14.89,-22.62 6.07,-6.62 12.69,-11.59 20.14,-15.17 7.44,-3.58 15.72,-5.52 24.82,-5.52 6.62,0 12.41,1.1 17.1,3.59 4.69,2.48 8.83,5.52 12.14,9.1 3.31,3.86 6.07,8 8,12.69l1.38 0c0.55,-4.14 1.1,-8.28 1.65,-12.14 0.55,-3.86 1.11,-7.72 1.93,-11.86 0.83,-3.86 1.65,-8 2.48,-12.41l10.21 -48.27 24 0 -44.41 209.63 -19.86 0 3.03 -27.31 -1.1 0c-4.41,5.52 -9.1,10.48 -14.07,15.17 -4.96,4.69 -10.2,8.28 -16,11.04 -5.79,2.48 -12.13,3.86 -19.03,3.86zm8.28 -20.14c4.14,0 8.28,-1.1 12.41,-3.04 4.14,-1.93 8.27,-4.96 12.41,-8.55 3.86,-3.86 7.45,-8.27 11.04,-13.52 3.59,-5.24 6.62,-10.76 9.1,-16.82 2.76,-6.35 4.96,-12.69 6.34,-19.59 1.38,-6.89 2.21,-14.07 2.21,-21.52 0,-8.83 -2.21,-16 -6.35,-21.51 -4.41,-5.52 -11.58,-8.28 -21.24,-8.28 -5.8,0 -11.31,1.65 -16.55,4.69 -4.96,3.03 -9.38,7.17 -13.52,12.69 -4.14,5.24 -7.45,11.58 -10.48,18.76 -2.76,6.89 -4.97,14.34 -6.62,22.34 -1.38,8 -2.2,16.28 -2.2,24.55 0,9.93 1.93,17.38 5.79,22.34 4.14,4.97 9.93,7.45 17.65,7.45z"/>
   <polygon id="_16" class="fil5" points="4194.13,2249.54 4210.13,2175.62 4178.14,2052.6 4202.69,2052.6 4226.13,2151.35 4290.68,2052.6 4318.54,2052.6 4234.13,2176.45 4218.96,2249.54 "/>
   <path id="_17" class="fil5" d="M4347.77 2251.75c-11.31,0 -21.24,-2.2 -29.51,-6.89 -8.28,-4.69 -14.62,-11.04 -19.04,-19.58 -4.41,-8.55 -6.62,-18.76 -6.62,-30.34 0,-9.1 1.1,-17.93 3.04,-27.03 1.93,-9.1 4.96,-17.93 9.1,-25.93 3.86,-8 8.83,-15.45 14.62,-21.79 5.79,-6.35 12.69,-11.31 20.69,-14.89 8,-3.59 16.82,-5.52 26.48,-5.52 11.58,0 21.51,2.21 29.51,6.9 8.28,4.69 14.62,11.31 19.04,19.86 4.41,8.55 6.62,18.48 6.62,30.34 0,9.1 -1.1,17.93 -3.04,27.03 -1.93,9.1 -4.96,17.65 -9.1,25.65 -3.86,8.28 -8.83,15.44 -14.62,21.79 -5.79,6.34 -12.69,11.31 -20.69,14.89 -8,3.59 -16.82,5.52 -26.48,5.52zm1.38 -20.13c5.24,0 10.2,-1.1 14.89,-3.31 4.69,-2.2 9.1,-5.52 13.24,-9.93 4.14,-4.14 7.45,-9.38 10.2,-15.72 3.04,-6.34 5.24,-13.79 6.9,-21.79 1.65,-8 2.48,-17.1 2.48,-26.76 0,-5.52 -0.83,-11.04 -2.76,-16.28 -1.93,-5.24 -5.24,-9.38 -9.65,-12.69 -4.41,-3.59 -10.21,-5.24 -17.65,-5.24 -6.07,0 -11.59,1.38 -16.83,3.86 -5.24,2.48 -9.65,6.07 -13.79,10.76 -4.14,4.69 -7.45,10.48 -10.48,16.83 -2.76,6.34 -4.96,13.24 -6.34,20.69 -1.38,7.44 -2.21,15.44 -2.21,23.72 0,11.31 2.76,20.13 8.28,26.48 5.8,6.34 13.52,9.38 23.72,9.38z"/>
   <path id="_18" class="fil5" d="M4486.8 2252.3c-7.45,0 -13.79,-1.38 -19.59,-4.14 -5.52,-2.76 -9.93,-6.9 -12.96,-12.41 -3.03,-5.52 -4.41,-12.14 -4.41,-20.14 0,-4.14 0.28,-8.27 0.83,-12.13 0.83,-3.59 1.38,-7.45 2.2,-11.59l19.31 -90.2 24.55 0 -19.86 92.96c-0.83,4.14 -1.38,7.44 -1.93,10.48 -0.28,3.04 -0.55,5.52 -0.55,8 0,5.79 1.38,10.48 4.41,13.79 3.04,3.59 8,5.24 14.89,5.24 6.35,0 12.96,-2.2 20.14,-6.62 7.44,-4.41 14.07,-11.59 20.41,-21.24 6.35,-9.65 11.04,-22.62 14.62,-38.89l13.52 -63.72 24 0 -31.44 147.85 -19.86 0 3.03 -27.31 -1.38 0c-3.59,4.41 -7.72,9.1 -12.41,13.79 -4.69,4.69 -9.93,8.55 -16.28,11.59 -6.07,3.03 -13.24,4.69 -21.24,4.69z"/>
   <path id="_19" class="fil5" d="M4602.09 2249.54l31.44 -147.85 19.86 0 -3.03 27.31 1.38 0c3.86,-5.24 8,-9.93 12.14,-14.62 4.14,-4.41 9.1,-8 14.34,-11.04 5.24,-3.04 11.58,-4.41 18.48,-4.41 2.48,0 5.24,0.28 8,0.55 3.03,0.28 5.52,0.55 8,1.38l-5.24 21.79c-2.48,-0.55 -4.69,-0.83 -6.89,-1.1 -2.48,-0.28 -4.69,-0.55 -7.17,-0.55 -6.89,0 -12.96,1.65 -18.76,5.24 -5.79,3.59 -11.03,8.55 -15.72,14.35 -4.41,5.79 -8.28,12.41 -11.31,19.58 -3.04,7.17 -5.52,14.34 -6.9,21.79l-14.34 67.58 -24.27 0z"/>
   <path id="_20" class="fil5" d="M4813.66 2249.54l-8.27 -196.94 24.27 0 3.86 119.99c0.28,7.44 0.28,15.44 0,23.44 -0.28,8 -0.83,15.72 -1.1,23.17l0.83 0c2.48,-7.17 5.79,-15.44 9.38,-24.55 3.59,-9.38 7.45,-18.2 11.31,-26.2l54.06 -115.85 25.1 0 5.52 115.3c0.28,5.79 0.55,11.58 0.83,17.93 0.28,6.34 0.28,12.13 0.28,17.93 0.28,5.79 0.28,10.76 0,15.44l0.83 0c1.65,-4.69 3.31,-9.93 5.24,-15.17 1.93,-5.24 3.86,-10.48 5.79,-15.72 2.21,-5.52 4.41,-11.03 6.62,-16.55l51.58 -119.16 26.2 0 -89.37 196.94 -25.1 0 -6.07 -126.89c-0.28,-4.13 -0.28,-8.27 -0.55,-12.69 -0.28,-4.69 -0.28,-9.1 -0.55,-13.52 0,-4.41 0,-8.55 0,-12.14l-0.83 0c-1.93,5.52 -3.86,11.03 -6.34,16.83 -2.48,5.79 -5.8,13.24 -9.93,22.34l-58.2 126.06 -25.38 0z"/>
   <path id="_21" class="fil5" d="M5074.87 2251.75c-11.31,0 -21.24,-2.2 -29.51,-6.89 -8.28,-4.69 -14.62,-11.04 -19.04,-19.58 -4.41,-8.55 -6.62,-18.76 -6.62,-30.34 0,-9.1 1.1,-17.93 3.04,-27.03 1.93,-9.1 4.96,-17.93 9.1,-25.93 3.86,-8 8.83,-15.45 14.62,-21.79 5.79,-6.35 12.69,-11.31 20.69,-14.89 8,-3.59 16.82,-5.52 26.48,-5.52 11.58,0 21.51,2.21 29.51,6.9 8.28,4.69 14.62,11.31 19.04,19.86 4.41,8.55 6.62,18.48 6.62,30.34 0,9.1 -1.1,17.93 -3.04,27.03 -1.93,9.1 -4.96,17.65 -9.1,25.65 -3.86,8.28 -8.83,15.44 -14.62,21.79 -5.79,6.34 -12.69,11.31 -20.69,14.89 -8,3.59 -16.82,5.52 -26.48,5.52zm1.38 -20.13c5.24,0 10.2,-1.1 14.89,-3.31 4.69,-2.2 9.1,-5.52 13.24,-9.93 4.14,-4.14 7.45,-9.38 10.2,-15.72 3.04,-6.34 5.24,-13.79 6.9,-21.79 1.65,-8 2.48,-17.1 2.48,-26.76 0,-5.52 -0.83,-11.04 -2.76,-16.28 -1.93,-5.24 -5.24,-9.38 -9.65,-12.69 -4.41,-3.59 -10.21,-5.24 -17.65,-5.24 -6.07,0 -11.59,1.38 -16.83,3.86 -5.24,2.48 -9.65,6.07 -13.79,10.76 -4.14,4.69 -7.45,10.48 -10.48,16.83 -2.76,6.34 -4.96,13.24 -6.34,20.69 -1.38,7.44 -2.21,15.44 -2.21,23.72 0,11.31 2.76,20.13 8.28,26.48 5.8,6.34 13.52,9.38 23.72,9.38z"/>
   <path id="_22" class="fil5" d="M5169.49 2249.54l31.44 -147.85 19.86 0 -3.03 27.31 1.38 0c3.86,-5.24 8,-9.93 12.14,-14.62 4.14,-4.41 9.1,-8 14.34,-11.04 5.24,-3.04 11.58,-4.41 18.48,-4.41 2.48,0 5.24,0.28 8,0.55 3.03,0.28 5.52,0.55 8,1.38l-5.24 21.79c-2.48,-0.55 -4.69,-0.83 -6.89,-1.1 -2.48,-0.28 -4.69,-0.55 -7.17,-0.55 -6.89,0 -12.96,1.65 -18.76,5.24 -5.79,3.59 -11.03,8.55 -15.72,14.35 -4.41,5.79 -8.28,12.41 -11.31,19.58 -3.04,7.17 -5.52,14.34 -6.9,21.79l-14.34 67.58 -24.27 0z"/>
   <path id="_23" class="fil5" d="M5279 2249.54l44.41 -209.63 24.55 0 -17.93 83.3c-3.04,14.62 -5.79,26.2 -8.28,34.2 -2.2,8 -3.86,13.24 -4.69,15.72l0.55 0 70.06 -71.44 28.69 0 -63.44 63.44 39.44 84.41 -26.76 0 -31.17 -69.24 -19.86 15.72 -11.04 53.51 -24.55 0z"/>
   <path id="_24" class="fil5" d="M5394.85 2315.74c-3.59,0 -6.62,-0.28 -9.65,-0.83 -3.04,-0.55 -5.52,-1.11 -8,-1.93l0 -20.41c2.48,0.83 4.96,1.38 7.45,1.93 2.48,0.83 4.96,1.1 8,1.1 6.62,0 11.86,-2.76 15.44,-8.28 3.59,-5.24 6.62,-12.96 8.83,-23.17l30.34 -143.98 -25.65 0 1.93 -10.2 27.59 -9.1 3.03 -13.24c2.21,-9.38 4.69,-17.1 7.72,-23.45 3.04,-6.34 6.35,-11.58 10.2,-15.44 4.14,-3.59 8.83,-6.35 14.07,-7.72 5.24,-1.65 11.31,-2.48 18.2,-2.48 4.69,0 9.38,0.55 14.07,1.65 4.96,0.83 8.83,2.2 11.86,3.59l-6.34 18.48c-2.48,-0.83 -5.52,-1.65 -8.55,-2.48 -3.04,-0.83 -6.34,-1.38 -9.93,-1.38 -7.17,0 -12.69,1.93 -16.83,6.07 -4.14,4.14 -7.72,11.86 -10.2,23.17l-3.31 14.07 31.72 0 -3.59 18.48 -31.72 0 -30.89 146.74c-2.2,10.2 -5.24,18.76 -9.1,26.2 -3.59,7.44 -8.55,12.96 -14.62,16.83 -5.79,3.86 -13.24,5.79 -22.07,5.79zm108.4 -66.2l44.69 -209.63 24.28 0 -44.69 209.63 -24.28 0z"/>
   <path id="_25" class="fil5" d="M5635.37 2251.75c-11.31,0 -21.24,-2.2 -29.51,-6.89 -8.28,-4.69 -14.62,-11.04 -19.04,-19.58 -4.41,-8.55 -6.62,-18.76 -6.62,-30.34 0,-9.1 1.1,-17.93 3.04,-27.03 1.93,-9.1 4.96,-17.93 9.1,-25.93 3.86,-8 8.83,-15.45 14.62,-21.79 5.79,-6.35 12.69,-11.31 20.69,-14.89 8,-3.59 16.82,-5.52 26.48,-5.52 11.58,0 21.51,2.21 29.51,6.9 8.28,4.69 14.62,11.31 19.04,19.86 4.41,8.55 6.62,18.48 6.62,30.34 0,9.1 -1.1,17.93 -3.04,27.03 -1.93,9.1 -4.96,17.65 -9.1,25.65 -3.86,8.28 -8.83,15.44 -14.62,21.79 -5.79,6.34 -12.69,11.31 -20.69,14.89 -8,3.59 -16.82,5.52 -26.48,5.52zm1.38 -20.13c5.24,0 10.2,-1.1 14.89,-3.31 4.69,-2.2 9.1,-5.52 13.24,-9.93 4.14,-4.14 7.45,-9.38 10.2,-15.72 3.04,-6.34 5.24,-13.79 6.9,-21.79 1.65,-8 2.48,-17.1 2.48,-26.76 0,-5.52 -0.83,-11.04 -2.76,-16.28 -1.93,-5.24 -5.24,-9.38 -9.65,-12.69 -4.41,-3.59 -10.21,-5.24 -17.65,-5.24 -6.07,0 -11.59,1.38 -16.83,3.86 -5.24,2.48 -9.65,6.07 -13.79,10.76 -4.14,4.69 -7.45,10.48 -10.48,16.83 -2.76,6.34 -4.96,13.24 -6.34,20.69 -1.38,7.44 -2.21,15.44 -2.21,23.72 0,11.31 2.76,20.13 8.28,26.48 5.8,6.34 13.52,9.38 23.72,9.38z"/>
   <path id="_26" class="fil5" d="M5738.54 2249.54l-6.07 -147.85 23.72 0 2.2 78.89c0.28,10.21 0.28,19.31 0,27.59 -0.28,8 -0.83,14.89 -1.1,20.13l1.1 0c1.38,-3.86 3.31,-8.28 5.24,-13.52 1.93,-5.24 4.13,-10.48 6.34,-15.72 2.48,-5.24 4.41,-9.93 6.34,-13.79l38.89 -83.58 26.2 0 4.69 79.17c0.28,6.89 0.28,14.62 0.55,23.72 0.28,8.83 0,16.83 -0.28,23.72l1.1 0c1.66,-4.69 3.59,-10.2 5.52,-16 2.2,-5.8 4.69,-11.86 7.44,-18.2 2.48,-6.62 5.24,-13.24 8.28,-19.86l32.27 -72.54 25.65 0 -68.41 147.85 -29.24 0 -4.14 -79.99c-0.28,-4.96 -0.28,-9.65 -0.55,-14.07 0,-4.69 0,-9.38 0,-14.34 0.28,-4.96 0.28,-10.21 0.28,-16l-1.1 0c-1.65,4.41 -3.31,8.55 -4.96,12.69 -1.38,4.14 -3.31,8.28 -5.24,12.96 -1.93,4.41 -4.41,9.65 -7.45,16l-38.62 82.75 -28.69 0z"/>
  </g>
 </g>
</svg>
