<?xml version="1.0" encoding="UTF-8"?>
<!DOCTYPE svg PUBLIC "-//W3C//DTD SVG 1.1//EN" "http://www.w3.org/Graphics/SVG/1.1/DTD/svg11.dtd">
<!-- Creator: CorelDRAW (Evaluation Version) -->
<svg xmlns="http://www.w3.org/2000/svg" xml:space="preserve" width="2.71666in" height="0.516661in" version="1.1" style="shape-rendering:geometricPrecision; text-rendering:geometricPrecision; image-rendering:optimizeQuality; fill-rule:evenodd; clip-rule:evenodd"
viewBox="0 0 2716.66 516.66"
 xmlns:xlink="http://www.w3.org/1999/xlink"
 xmlns:xodm="http://www.corel.com/coreldraw/odm/2003">
 <defs>
  <style type="text/css">
   <![CDATA[
    .fil0 {fill:black}
    .fil4 {fill:#000133}
    .fil1 {fill:#00085A}
    .fil3 {fill:#559956}
    .fil2 {fill:#F9F9FA}
    .fil5 {fill:#2D2A2B;fill-rule:nonzero}
   ]]>
  </style>
    <clipPath id="id0">
     <path d="M775.38 351.32l1802.52 0 0 148.11 -1802.52 0 0 -148.11z"/>
    </clipPath>
 </defs>
 <g id="Layer_x0020_1">
  <metadata id="CorelCorpID_0Corel-Layer"/>
  <path class="fil0" d="M139.76 40.76c-20.78,4.66 -31.41,11.74 -42.12,23.86 -11.21,12.67 -17.56,27.24 -18.48,48.34 -1.83,42.07 -0.07,89.45 -0.02,132.1 0.03,23.98 -1.4,181.15 1.39,197.48 5.78,33.8 36.5,57.33 73.3,58.33 59.57,1.61 137.79,0.13 198.79,0.16 23.96,0.02 245.49,2.2 263.38,-1.71 34.93,-7.65 58.92,-33.86 60.74,-71.14 1.01,-20.79 -0.15,-44.35 -0.18,-65.43 -0.07,-39.32 1.6,-247.38 -1.56,-263.36 -3.13,-15.88 -12.9,-33.87 -24.22,-42.57 -30.15,-23.18 -69.64,-17.09 -115.07,-17.08l-264.16 -0c-19.55,0 -121.12,-1.38 -131.79,1.02z"/>
  <path class="fil1" d="M138.32 45.7c-23.98,7 -26.3,9.8 -39.91,24.94 -9.89,11.01 -15.4,30.83 -15.47,50.19 -0.16,43.11 -0.02,86.36 0.14,129.46 0.09,26.25 -2.25,172.97 2.72,192.17 16.83,65.07 74.69,54.33 141.29,53.8l325.62 -0.13c16.91,-0.06 48.91,1.83 63.79,-1.52 7.28,-1.64 15.99,-5.81 22.33,-9 6.9,-3.46 13.8,-9.98 17.73,-15.19 10.71,-14.17 14.7,-27.58 15.1,-50.12 0.76,-42.92 -0.16,-86.48 -0.03,-129.47 0.07,-26.41 1.25,-172.82 -1.7,-193.2 -2.64,-18.19 -12.84,-29.98 -25.48,-39.85 -23.78,-18.57 -83.02,-13.24 -116.58,-12.96 -86.69,0.74 -173.54,-0.67 -260.24,-0.06 -21.51,0.15 -116.37,-2.84 -129.31,0.94z"/>
  <path class="fil0" d="M156.94 191.1c11.67,10.05 67.85,1.55 93.09,5 0.8,5.27 -18.04,88.79 -20.71,103.49 -1.67,9.22 -4.44,15.62 -5.93,25.26 -2.78,17.88 -7.17,34.31 -10.99,51.93 -3.16,14.59 -4.07,15.1 1.35,26.67 8.54,0.74 62.47,0.52 66.67,-1.54 6.35,-2.87 5.8,-11.94 7.61,-22.63l32.57 -183.44c10.84,-2.43 31.06,-1.84 43.8,-1.33 14.28,0.57 31.18,-0.33 45.87,-0.44 15.11,-0.11 16.08,-13.13 18.7,-27.02 2.12,-11.25 7.96,-27.43 9.09,-37.07 -12.48,-6.52 -62.52,-2.54 -81.51,-2.54 -51.46,0.02 -126.47,1.41 -175.27,-0.43 -15.87,-0.59 -14.68,3.69 -18.95,25.66 -1.72,8.88 -6.01,30.48 -5.4,38.41z"/>
  <path class="fil0" d="M2319.46 132.7c30.55,0.09 77.26,-2 100.95,6.17 48.84,16.83 37.26,70.61 -4.09,82.73 -15.4,4.52 -52.56,6.26 -69.94,4.31 -3.48,-8.63 11.08,-56.92 9.35,-72.06 -11.15,-0.67 -55.79,-3.86 -61.57,0.5 -5.76,7.11 -7.37,42.52 -10.1,55.31 -2.25,10.56 -8.83,48.47 -7.85,58.02 8.65,5.54 11.17,3.71 27.56,3.66l81.08 -0.04c69.37,-0.29 131.94,-28.75 132.44,-96.87 0.26,-35.76 -19.73,-58.24 -42.81,-71.3 -40.1,-22.69 -107.39,-17.66 -156.31,-17.63 -15.1,0.01 -14.33,4.43 -17.65,25.68 -3.25,20.86 -2.81,21.46 18.96,21.52z"/>
  <path class="fil2" d="M161.68 191.34l85.15 -0.5c16.05,0.89 6.24,10.71 -1.18,51.79 -4.68,25.9 -31.78,142.46 -31.64,157.12 11.88,-1.47 63.65,-0.87 65.71,-2.79 2.81,-2.62 28.91,-167.34 34.53,-196.97 2.69,-14.15 13.43,-10.5 33.16,-10.56l70.82 -0 15.54 -58.02 -261.23 0.33c-5.44,2.23 -10.96,53.83 -10.86,59.59z"/>
  <path class="fil0" d="M1469.72 270.89l41.56 0.39c23.43,-0.08 20.54,-5.19 23.37,-27.56 6.94,-54.67 -1.15,-45.23 36.78,-45.28l54.89 -0.37c0.17,14.15 -12.96,63.97 -7.55,71.83 3.3,3.05 23.59,1.37 31.12,1.4 34.24,0.1 27.36,3.14 33.39,-29.39 8.02,-43.35 13.32,-91.46 21.54,-138.17 2.84,-16.15 6.33,-18.24 -13.07,-18.25l-44.52 -0.06c-6.27,9.72 -10.25,49.62 -13.4,67.71l-86.14 0.4 6.51 -39.28c5.15,-33.84 14.22,-28.94 -49.45,-28.72 -15.28,0.05 -13.37,11.8 -16.8,37.99l-14.54 98.12c-3.22,15.35 -7.65,33.97 -3.69,49.26z"/>
  <path class="fil0" d="M1764.29 270.53c3.59,-3.15 2.59,-0.67 4.11,-6.4l4.54 -28.14c1.63,-12.35 4.23,-25.35 5.39,-37.72l87.66 0.07 -8.14 53.12c-0.57,2.99 -2.35,10.87 -1.17,14.26 1.26,3.57 -1.04,1.43 2.48,2.82 1.21,3.11 0.39,2.93 11.71,2.78l43.16 -0.16c2.34,-4.39 2.69,-2.73 4.13,-8.94l12.22 -82.26c1.82,-13.97 16.07,-86.52 12.41,-93.17 -2.69,-2.69 -41.45,-1.58 -49.76,-1.42 -6.94,0.13 -9.38,0.76 -11.52,6.78l-9.62 60.99 -86.84 0.36c1.58,-13.89 12.59,-58.04 8.17,-67.46l-59.35 -0.61c-2,4.83 -1.23,0.99 -2.59,5.65 -0.59,2.06 -0.93,5.54 -1.36,7.75l-24.22 163.78c-0.72,11.43 13.98,8.63 23.97,8.67 10.82,0.04 25,1.71 34.62,-0.76z"/>
  <path class="fil2" d="M452.13 435.57l0.77 8.08 9.57 0.26 72.52 -84.49c11.39,-13.66 24.16,-29.1 36.02,-42.44 6.87,-7.71 32.87,-41.01 36.49,-42.21 -1.47,-3.7 0.18,-1.38 -3.91,-2.26 -1.35,-0.29 -4.97,-0.16 -6.32,-0.17 -9.7,0.33 -60,1.62 -65.36,-1.13 -4.18,-4.72 41.63,-124.19 40.29,-141 -12.11,-2.88 -47.33,0.36 -62.73,-0.13 -5.22,10.39 -24.2,108.7 -27.24,112.42 -9.13,7.73 -84.44,-0.13 -102.71,3.56 -2.55,7.79 -11.77,55.4 -11.6,63.49 22.65,3.59 102.78,-3.15 114.71,0.33 2.46,7.95 -26.9,106.26 -30.5,125.68z"/>
  <path class="fil1" d="M2095.52 187.17c-0.32,-6.49 1.33,-16.04 4.24,-21.43 2.65,-0.06 5.41,0.03 7.44,1.05 3.41,1.71 3.19,2.94 4.45,5.7l19.46 22.85c9.22,9.09 24.4,29.9 26.05,31.55 3.56,3.55 3.35,2.69 6.44,6.55 4.07,5.09 8.72,10.86 13.3,15.53 3.71,3.79 10.03,12.59 13.66,15.14 5.84,4.1 46.29,3.83 53.06,0.65 4.89,-4.07 18.16,-111.91 21.53,-131.59 0.97,-5.67 6.43,-34.27 5.83,-39.72 -0.04,-0.31 -0.2,-0.8 -0.24,-1.05 -0.04,-0.24 -0.31,-0.48 -0.35,-1.02 -0.35,-4.82 -48.55,-1.51 -51.3,0.88 -5.29,4.79 -4.91,19.4 -6.14,27l-7.72 56.25c-4.33,27.57 -4.95,13.13 -8.13,21.76 -3.13,-2.68 -5.9,-4.26 -8.59,-7.04 -2.54,-2.62 -5.02,-5.91 -7.22,-8.4l-13.76 -16.37c-2.2,-2.67 -4.85,-6.03 -7.07,-8.64l-34.6 -42.52c-3.2,-4.2 -4.63,-4.33 -7.84,-7.8 -12.32,-13.35 -5.61,-17.13 -28.7,-16.89 -8.86,0.09 -20.39,-1.81 -28.43,1.45 -3.09,14.12 -3.81,30.52 -6.67,44.45l-19.83 129.71c6.38,2.31 42.46,2.52 46.87,-0.62 3.82,-3.16 2.37,-2.12 3.48,-8.61 2.5,-14.74 11.02,-60.71 10.8,-68.84z"/>
  <path class="fil1" d="M2305.02 126.04c17.43,11.54 128.52,-17.47 149.74,37.21 10.78,27.79 -11.59,52.24 -29.25,59.6 -17.55,7.32 -65.71,11.37 -83.74,5.18 -0.85,-21.02 9.86,-60.34 8.86,-70.19 -12.63,-2.19 -43.76,-2.93 -54.13,1.61 -1.55,6.07 -16.7,102.63 -16.35,105.2 7.55,4.63 65.39,2.26 78.53,2.14 26.66,-0.24 50.84,0.52 75.95,-6 12.81,-3.33 38.99,-13.92 49.03,-22.87 10.47,-9.34 16.59,-16.64 21.77,-29.24 4.31,-10.5 6.7,-22.56 6.87,-35.58 0.61,-49.5 -42.13,-74.86 -84.84,-80.52 -12.92,-1.71 -110.96,-5.85 -117.33,-0.8 -3.65,2.89 -7.3,28.61 -5.11,34.25z"/>
  <path class="fil0" d="M1367.01 86.02c-36.69,2.89 -76.33,10.55 -101.91,37.09 -27.02,28.02 -36.91,71.81 -15.67,103.94 33.74,51.07 107.89,44.8 163.77,44.37 14.5,-0.11 25.02,2.39 29.23,-6.36 2.27,-4.72 4.85,-24.53 4.7,-30.51 -0.28,-10.74 -6.73,-8.94 -24.78,-8.74 -27.9,0.31 -77.18,2.93 -96.52,-8.46 -12.32,-7.25 -27.21,-23.88 -19.42,-46.3 5.53,-15.91 21.35,-27.31 37.43,-33.33 19.98,-7.49 72.07,-5.15 98.13,-5.14 15.37,0 21.13,2.5 22.48,-12.98 3.11,-35.46 13.81,-34.01 -27.72,-34.11 -22.09,-0.06 -48.23,-1.15 -69.73,0.54z"/>
  <path class="fil1" d="M1497.61 91.74c-8.99,39.33 -12.11,96.8 -19.66,130.51 -1.22,5.43 -7.63,41.55 -4.59,43.97 4.65,1.59 46.04,-0 53.01,-0.93 2.18,-14.1 7.54,-62.44 14.13,-70.61l86.74 -0.47c6.31,8.33 2.32,21.05 -0.3,33.11 -1.45,6.67 -5.77,32.95 -4.45,38.52 14.17,0.76 48.85,5.15 52.94,-4.4 1.23,-2.87 20.77,-141.81 25.23,-160.68 2.67,-11.32 0.45,-8.59 -0.48,-9.45 -4.47,-3.97 -44.51,-1.91 -51,-0.12 -4.84,12.96 -6.2,57.36 -13.47,63.8 -5.57,4.93 -61.69,3.52 -73.44,3.57 -19.31,0.07 -21.31,1.18 -16.69,-17.94 2.39,-9.86 4.13,-23.83 4.97,-34.2 1.47,-18.17 7.33,-17.54 -15.72,-16.79 -12.34,0.41 -26.07,-0.65 -37.21,2.1z"/>
  <path class="fil1" d="M1711.64 265.66c11.19,0.79 46.92,5.3 51.84,-3.9 0.43,-0.8 0.99,-3.01 1.2,-4 3.67,-16.69 5.56,-51.12 11.71,-62.78 12.91,-1.05 85.51,-2.93 92.31,1.23 1.67,14.02 -9.41,63.69 -6.76,67.75 3.77,4.87 16.31,2.51 24.65,2.59 30.55,0.31 25.7,1.67 29.77,-21.92 1.29,-7.48 2.11,-14.35 2.66,-21.83 1.04,-14.31 5.28,-28.91 7.29,-43.96 2.12,-15.87 4.84,-29.26 7.44,-43.74 1.61,-9 1.44,-18.48 4.41,-33.55 0.33,-1.66 1,-4.17 1.02,-5.72 0.01,-0.81 0.58,-2.48 -1.25,-5.87 -8.43,-1.86 -46.91,-1.39 -50.96,3.83 -2.76,3.55 -7.07,40.05 -9.07,48.45 -2.56,10.77 -0.11,13.79 -11.74,15.54 -7.13,1.07 -79.66,1.75 -82.87,-1.5 -7.83,-13.28 9.43,-48.19 6.08,-66.42l-46.2 -0.01c-7.06,0.63 -7.04,0.78 -8.21,7.6 -1.43,8.32 -2.95,19 -3.87,27.53 -1.13,10.49 -3.31,17.51 -4.82,27.82 -2.54,17.41 -3.79,39.89 -7.82,56.22 -2.29,9.25 -9.1,49.44 -6.81,56.63z"/>
  <path class="fil0" d="M1210.65 227.48c-14.32,-5.43 -115.21,1.19 -130.57,-2.37 -17.74,-4.11 -13.99,-19.32 -4.58,-24.8 17.55,-10.23 117.45,1.73 127.2,-6.14 7.27,-5.87 8.31,-27.01 7.78,-38.08 -9.58,-6.56 -14.43,-4.05 -32.67,-3.99l-109.88 -0.09c-32.76,0.15 -56.64,16.85 -63.75,46.27 -2.48,10.3 -3.89,21.47 -1.28,32.01 12.36,49.78 73.71,40.92 105.6,41.15 24.36,0.18 48.87,0.02 73.24,-0.11 13.43,-0.07 24.16,2.31 26.49,-10.45 1.95,-10.68 4.83,-23.05 2.43,-33.39z"/>
  <path class="fil1" d="M1441.7 230.95c-33.59,-7.61 -96.11,12.98 -130.54,-18.59 -8.2,-7.52 -12.54,-24.89 -9.72,-40.09 3.82,-20.57 33.09,-39.47 56.19,-42.66 31.38,-4.33 69.06,1.59 98.89,-2.34 2.88,-4.59 9.63,-27.33 5.97,-34.83 -2.11,-4.31 -11.8,-2.71 -17,-2.35 -7.19,0.49 -13.46,-0.22 -20.5,-0.33 -51.96,-0.83 -116.18,-1.18 -155.86,34.72 -31.35,28.37 -38.47,93.04 0.67,117.53 24.13,15.09 12.32,10.15 44.4,19.76 22.57,6.76 54.84,5.46 79.39,5.11 44.65,-0.65 44.11,4.38 46.91,-15.52 1.14,-8.16 3.67,-11.96 1.21,-20.41z"/>
  <path class="fil1" d="M1202.63 265.56c1.3,-9.23 6.14,-27.03 3.96,-34.84 -10.74,-2.51 -61.3,-0.43 -77.17,-0.56 -18.67,-0.15 -63.91,8.07 -65.62,-15.19 -1.97,-26.76 35.23,-23.05 56.47,-23.02 16.81,0.02 68.02,1.88 80.18,-1.29 3.04,-7.02 5.35,-18.95 5.69,-28.67 0.32,-9.3 -9.03,-6.6 -27.02,-6.13 -26.15,0.69 -114.39,-2.44 -132.7,3.44 -20.3,6.52 -28.77,16.28 -35.52,34.06 -16.96,44.7 12.49,72.7 54.44,73.52 45.69,0.89 91.96,-0.49 137.29,-1.31z"/>
  <path class="fil0" d="M1945.48 268.55c1.52,3.94 -2.96,1.91 5.05,2.84l42 -0.13c15.78,-0.02 11.86,-8.15 17.35,-38.99 2.8,-15.74 4.22,-32.97 7.55,-48.57 5.05,-23.65 7.9,-58.41 13.11,-85.09 1.24,-6.39 2.08,-11.2 -4.19,-12.9l-45.59 -0.24c-12.08,-0.01 -10.78,4.05 -12.62,15.04 -1.33,7.93 -2.4,15.43 -3.7,23.48l-20.8 133.64c-2.91,13.59 0.34,10.32 1.85,10.91z"/>
  <path class="fil0" d="M795.76 86.32c-7.41,3.03 -8.75,16.41 -10.2,25.43 -2.89,17.91 0.83,18.45 16.92,18.47 31.28,0.04 208.24,1.26 213.98,-0.76 7.67,-2.7 7.74,-17.06 8.64,-26.94 1.42,-15.66 0.25,-17.29 -15.96,-17.06 -31.8,0.44 -207.79,-1.41 -213.37,0.87z"/>
  <path class="fil1" d="M1948.65 265.38c7.48,1.86 43.76,2.25 49.5,-0.72 4.46,-3.53 18.93,-110.72 21.73,-129.67 1.78,-12.03 6.87,-32.61 6.31,-43.92 -9.23,-2.55 -20.12,-1.33 -29.74,-1.32 -32.51,0.04 -19.22,-3.07 -31.99,64.43 -2.4,12.68 -16.98,103.77 -15.81,111.19z"/>
  <path class="fil3" d="M1015.65 126.37c5.3,-5.72 5.86,-19.31 6.32,-28 0.64,-12.26 -6.15,-9.46 -24.63,-9.21 -30.04,0.41 -196.24,-2.17 -202.08,2.16 -4.04,3 -6.42,20.32 -6.91,27.25 -0.78,11 6.92,8.79 24.6,8.74 31.12,-0.08 195.79,1.44 202.7,-0.94z"/>
  <path class="fil0" d="M805.09 326.12c0.7,1.77 -1.2,2.85 9.07,2.69 3.98,-0.06 7.89,-0.1 11.87,-0.09l1701.76 -0.01c15.39,0.02 16.61,2.1 19.56,-5.14 -130.14,-1.3 -439.01,0.43 -569.22,0.04 -130.76,-0.39 -261.56,-0.09 -392.32,-0.08l-776.8 -0c-6.28,1.29 -1.03,-0.4 -3.93,2.59z"/>
  <path class="fil0" d="M1078.42 130.25l125.54 0.04c12.74,-0.09 22.29,3.07 25.48,-8.93 1.76,-6.62 4.41,-23.57 3.31,-30.64 -3.34,-7.49 -19.03,-5.22 -30.1,-5.2 -30.2,0.06 -104.67,-1.24 -130.85,0.07 -10.86,0.55 -13.77,2.25 -16.26,12.28 -1.34,5.41 -3.5,21.81 -2.39,26.93 1.64,7.5 11.48,5.41 25.27,5.44z"/>
  <path class="fil0" d="M871.8 271.24l46.02 -0.06c4.61,-6.02 4.27,-4.83 5.62,-15.02 2.94,-22.31 13.69,-76.5 14.4,-93.68 0.61,-14.72 -21.23,-10.29 -33.35,-10.4 -26.99,-0.24 -27.31,-1.29 -30.6,12.61l-14.07 96.09c-0.33,10.45 2.27,10.45 11.97,10.46z"/>
  <path class="fil3" d="M1056.67 125.56c6.09,2.89 152.41,3.6 164.2,1.08 6.26,-4.42 6.63,-16.8 8.09,-24.21 3.11,-15.81 -2.7,-13.7 -17.14,-13.33l-128.17 0.26c-9.37,-0.09 -21.43,-2.74 -24.58,7 -1.89,5.86 -3.48,23.13 -2.4,29.19z"/>
  <path class="fil1" d="M864.98 264.62c3.03,2.27 7.71,2.07 12.03,2.06 4.85,-0.01 9.58,0.11 14.4,0.16 8.26,0.09 19.29,-0.78 27.14,-1.53 2.31,-25.76 9.73,-71.56 14.3,-99.4 1.41,-8.58 0.55,-9.78 -7.28,-9.98 -6.33,-0.17 -13.35,0.07 -19.78,0.06 -21.78,-0.03 -27.23,-9.07 -32.82,43.37 -1.11,10.41 -9.7,60.56 -8,65.26z"/>
  <path class="fil0" d="M2099.27 187.04l-0.52 -9.14c-0.01,-0.44 -0.17,-0.57 -0.4,-0.87l-2.82 10.14c0.22,8.13 -8.3,54.1 -10.8,68.84 -1.11,6.49 0.35,5.45 -3.48,8.61 -4.41,3.14 -40.49,2.93 -46.87,0.62l19.83 -129.71c2.86,-13.94 3.59,-30.33 6.67,-44.45 8.04,-3.26 19.57,-1.36 28.43,-1.45 23.09,-0.24 16.38,3.54 28.7,16.89 3.2,3.47 4.64,3.61 7.84,7.8l34.6 42.52c2.22,2.61 4.87,5.97 7.07,8.64l13.76 16.37c2.2,2.49 4.69,5.78 7.22,8.4 2.69,2.78 5.46,4.36 8.59,7.04 3.18,-8.63 3.79,5.81 8.13,-21.76l7.72 -56.25c1.23,-7.59 0.85,-22.21 6.14,-27 2.75,-2.39 50.95,-5.7 51.3,-0.88 0.04,0.54 0.31,0.78 0.35,1.02 0.04,0.24 0.2,0.74 0.24,1.05 0.59,5.45 -4.86,34.06 -5.83,39.72 -3.37,19.67 -16.63,127.52 -21.53,131.59 -6.76,3.18 -47.21,3.45 -53.06,-0.65 -3.63,-2.55 -9.95,-11.35 -13.66,-15.14 -4.57,-4.67 -9.22,-10.44 -13.3,-15.53 -3.09,-3.86 -2.88,-3 -6.44,-6.55 -1.65,-1.65 -16.82,-22.46 -26.05,-31.55l-19.46 -22.85 -3.27 0.09c1.37,5.72 20.46,27.33 25.43,33.18 4.52,5.33 8.8,10.22 13.28,15.55 7.94,9.43 36.07,42.47 41.83,47 6.56,5.16 12.45,2.96 27.24,2.99 9.2,0.02 20.76,0.55 29.69,-0.49 5.42,-8.32 4.07,-6.3 6.1,-20.09l10.7 -69.26c2.85,-18.37 14.5,-78.22 12.33,-93.31 -4.53,-2.06 -0.87,-2.81 -13.01,-2.71l-39.38 -0.03c-11.58,0.22 -9.56,2.77 -11.08,12.49 -0.77,4.9 -1.66,7.79 -2.22,13.49l-11.94 82.12c-3.65,-1.97 -4.67,-3.48 -6.73,-6.63 -2.43,-3.71 -3.94,-5.54 -6.8,-8.91l-69.95 -84.37c-5.62,-7.99 -8.86,-8.29 -21.94,-8.17 -10.45,0.09 -20.9,0.02 -31.35,0.12 -1.81,3.01 -4.15,4.26 -5.1,8.02l-19.28 128.5c-4.93,30.11 -12.73,47.96 0.73,49.23l28.85 -0.04c18.99,0.04 21.61,3.11 23.92,-15.5 1.8,-14.52 11.15,-57.51 9.59,-68.72z"/>
  <path class="fil0" d="M448.69 434.15l0.79 4.44c2.29,-5.7 0.07,-0.51 2.65,-3.02 3.61,-19.42 32.96,-117.73 30.5,-125.68 -11.94,-3.48 -92.07,3.26 -114.71,-0.33 -0.17,-8.09 9.06,-55.7 11.6,-63.49 18.28,-3.69 93.58,4.18 102.71,-3.56 3.04,-3.72 22.02,-102.03 27.24,-112.42 15.4,0.49 50.62,-2.75 62.73,0.13 1.34,16.81 -44.46,136.28 -40.29,141 5.36,2.74 55.66,1.46 65.36,1.13 0.4,-0.21 0.97,-0.88 1.24,-0.51 0.26,0.37 0.87,-0.37 1.24,-0.46l7.99 -0.78c-9.03,-6.11 -58.45,-1.09 -65.46,-2.72l-3.24 -1.35c-4.75,-2.23 16.22,-60.22 18.52,-66.31 3.98,-10.54 19.83,-60.58 18.79,-70.24 -7.57,-6.36 -22.12,-3.86 -32.8,-3.47 -11.74,0.42 -25.26,-1.78 -36.77,-0.37 -6.37,12.5 -10.91,40.7 -15,56.57 -2.48,9.63 -4.64,18.99 -6.91,28.4 -1.79,7.42 -2.37,24.78 -8.35,28.67 -5.12,3.39 -77.49,0.57 -91.21,1.63 -8.75,0.67 -9.8,3.56 -11.63,11.45 -2.94,12.7 -11.26,49.77 -9.21,58.95 13.32,7 37.39,3.35 54.83,3.87 18.65,0.55 40.88,0.26 57.28,-2.33 1.88,11.66 -11.32,46.1 -14.02,59.88 -3.18,16.23 -13.78,47.2 -13.89,60.92z"/>
  <path class="fil0" d="M462.47 443.91l-0.83 2.88c8.21,-1.35 9.72,-6.46 20.78,-18.33 9.12,-9.79 8.09,-11.52 18.67,-21.86 3.71,-3.63 5.66,-6.33 9.12,-10.44l45.33 -54.09c5.89,-7.33 13.41,-14.41 19.15,-21.41l35.43 -45.51c-1.81,-2.1 1.06,-0.92 -2.62,-0.37 -3.62,1.2 -29.63,34.5 -36.49,42.21 -11.86,13.34 -24.63,28.78 -36.02,42.44l-72.52 84.49z"/>
  <path class="fil4" d="M2095.52 187.17l2.82 -10.14c0.23,0.29 0.39,0.43 0.4,0.87l0.52 9.14c2.56,-3.58 2.61,-11.25 3.3,-16.56l5.8 2.11 3.27 -0.09c-1.26,-2.76 -1.04,-4 -4.45,-5.7 -2.03,-1.02 -4.79,-1.11 -7.44,-1.05 -2.91,5.39 -4.56,14.94 -4.24,21.43z"/>
  <path class="fil4" d="M461.65 446.79l0.83 -2.88 -9.57 -0.26 -0.77 -8.08c-2.58,2.51 -0.37,-2.68 -2.65,3.02l-0.79 -4.44c-4.32,1.66 -0.46,8.9 1.08,10.59 3.07,3.37 7.87,5.63 11.88,2.05z"/>
  
  <path class="fil5" d="M811.29 456.26c-3.97,0 -7.37,-0.34 -10.32,-0.91 -3.06,-0.57 -5.89,-1.48 -8.5,-2.72l0 -9.98c2.27,1.25 4.99,2.27 8.17,3.29 3.06,1.02 6.69,1.48 10.77,1.48 2.61,0 4.99,-0.23 7.26,-0.8 2.27,-0.57 4.31,-1.47 6.01,-2.72 1.7,-1.25 3.06,-2.83 4.08,-4.76 1.02,-1.93 1.59,-4.08 1.59,-6.69 0,-2.04 -0.45,-3.85 -1.24,-5.44 -0.91,-1.59 -2.38,-3.18 -4.31,-4.76 -1.93,-1.47 -4.54,-3.17 -7.82,-4.99 -2.83,-1.7 -5.44,-3.52 -7.71,-5.33 -2.16,-1.93 -3.97,-4.08 -5.22,-6.46 -1.25,-2.5 -1.81,-5.44 -1.81,-8.96 0,-3.74 0.68,-7.14 2.15,-9.98 1.36,-2.83 3.29,-5.33 5.78,-7.37 2.38,-2.04 5.22,-3.52 8.5,-4.54 3.17,-1.02 6.57,-1.59 10.2,-1.59 4.2,0 7.94,0.45 11.11,1.25 3.29,0.79 6.35,2.04 9.19,3.51l-3.85 8.62c-1.93,-1.02 -4.42,-2.04 -7.37,-3.06 -2.95,-0.91 -6.01,-1.36 -9.07,-1.36 -2.38,0 -4.54,0.34 -6.46,0.91 -1.93,0.57 -3.51,1.48 -4.87,2.72 -1.47,1.24 -2.61,2.72 -3.4,4.42 -0.8,1.7 -1.13,3.63 -1.13,5.78 0,2.27 0.45,4.19 1.25,5.78 0.79,1.48 2.15,2.95 3.85,4.2 1.7,1.25 3.85,2.61 6.46,4.2 3.29,1.93 6.12,3.85 8.5,5.78 2.49,1.93 4.42,4.08 5.78,6.58 1.48,2.49 2.16,5.56 2.16,9.3 0,4.08 -0.68,7.6 -2.16,10.66 -1.36,3.06 -3.4,5.67 -6.01,7.71 -2.61,2.04 -5.67,3.63 -9.41,4.65 -3.63,1.02 -7.71,1.59 -12.13,1.59z"/>
  <path id="_1" class="fil5" d="M875.69 456.04c-4.65,0 -8.73,-0.91 -12.13,-2.83 -3.4,-1.93 -6.01,-4.54 -7.82,-8.05 -1.81,-3.52 -2.72,-7.71 -2.72,-12.47 0,-3.74 0.46,-7.37 1.25,-11.11 0.8,-3.74 2.04,-7.37 3.74,-10.66 1.59,-3.29 3.63,-6.35 6.01,-8.96 2.38,-2.61 5.22,-4.65 8.5,-6.12 3.29,-1.48 6.92,-2.27 10.89,-2.27 4.76,0 8.84,0.91 12.13,2.83 3.4,1.93 6.01,4.65 7.83,8.16 1.81,3.52 2.72,7.6 2.72,12.47 0,3.74 -0.45,7.37 -1.25,11.11 -0.8,3.74 -2.04,7.26 -3.74,10.54 -1.59,3.4 -3.63,6.35 -6.01,8.96 -2.38,2.61 -5.22,4.65 -8.5,6.12 -3.29,1.48 -6.92,2.27 -10.89,2.27zm0.57 -8.28c2.16,0 4.2,-0.45 6.13,-1.36 1.93,-0.91 3.74,-2.27 5.44,-4.08 1.7,-1.7 3.06,-3.86 4.2,-6.46 1.24,-2.61 2.15,-5.67 2.83,-8.96 0.68,-3.29 1.02,-7.03 1.02,-11 0,-2.27 -0.34,-4.54 -1.13,-6.69 -0.8,-2.15 -2.15,-3.85 -3.97,-5.22 -1.81,-1.47 -4.2,-2.15 -7.26,-2.15 -2.5,0 -4.76,0.57 -6.92,1.59 -2.15,1.02 -3.97,2.5 -5.67,4.42 -1.7,1.93 -3.06,4.31 -4.31,6.92 -1.13,2.61 -2.04,5.44 -2.61,8.5 -0.57,3.06 -0.91,6.35 -0.91,9.75 0,4.65 1.13,8.28 3.4,10.89 2.38,2.61 5.56,3.85 9.75,3.85z"/>
  <path id="_2" class="fil5" d="M905.96 482.34c-1.48,0 -2.72,-0.11 -3.97,-0.34 -1.25,-0.23 -2.27,-0.46 -3.29,-0.8l0 -8.39c1.02,0.34 2.04,0.57 3.06,0.79 1.02,0.34 2.04,0.46 3.29,0.46 2.72,0 4.88,-1.13 6.35,-3.4 1.47,-2.16 2.72,-5.33 3.63,-9.53l12.47 -59.19 -10.55 0 0.8 -4.2 11.34 -3.74 1.25 -5.44c0.91,-3.85 1.93,-7.03 3.17,-9.64 1.25,-2.61 2.61,-4.76 4.2,-6.35 1.7,-1.48 3.63,-2.61 5.78,-3.18 2.16,-0.68 4.65,-1.02 7.48,-1.02 1.93,0 3.85,0.23 5.78,0.68 2.04,0.34 3.63,0.91 4.87,1.47l-2.61 7.6c-1.02,-0.34 -2.27,-0.68 -3.52,-1.02 -1.25,-0.34 -2.61,-0.57 -4.08,-0.57 -2.94,0 -5.21,0.79 -6.91,2.49 -1.7,1.7 -3.18,4.88 -4.2,9.52l-1.36 5.78 13.04 0 -1.47 7.6 -13.04 0 -12.7 60.32c-0.91,4.2 -2.15,7.71 -3.74,10.77 -1.47,3.06 -3.52,5.33 -6.01,6.92 -2.38,1.59 -5.44,2.38 -9.07,2.38z"/>
  <path id="_3" class="fil5" d="M968.44 456.26c-4.08,0 -7.48,-1.02 -10.32,-2.95 -2.83,-1.93 -4.19,-5.44 -4.19,-10.32 0,-1.13 0.11,-2.38 0.22,-3.74 0.23,-1.47 0.45,-2.83 0.8,-4.31l6.92 -33 -9.41 0 0.91 -4.54 10.2 -4.31 7.03 -12.58 5.9 0 -3.06 13.83 15.31 0 -1.59 7.6 -15.19 0 -7.03 33.11c-0.22,1.02 -0.45,2.16 -0.68,3.4 -0.22,1.25 -0.34,2.38 -0.34,3.4 0,1.7 0.45,3.18 1.36,4.43 1.02,1.24 2.49,1.81 4.65,1.81 1.36,0 2.72,-0.11 3.97,-0.34 1.25,-0.34 2.61,-0.68 4.08,-1.13l0 7.6c-0.91,0.45 -2.27,0.91 -4.19,1.36 -1.93,0.45 -3.63,0.68 -5.33,0.68z"/>
  <path id="_4" class="fil5" d="M994.06 455.13l-2.49 -60.78 9.75 0 0.91 32.43c0.11,4.2 0.11,7.94 0,11.34 -0.11,3.29 -0.34,6.12 -0.45,8.28l0.45 0c0.57,-1.59 1.36,-3.4 2.15,-5.56 0.8,-2.15 1.7,-4.31 2.61,-6.46 1.02,-2.16 1.81,-4.08 2.61,-5.67l15.99 -34.36 10.77 0 1.93 32.54c0.11,2.83 0.11,6.01 0.23,9.75 0.11,3.63 0,6.91 -0.11,9.75l0.45 0c0.68,-1.93 1.48,-4.19 2.27,-6.57 0.91,-2.38 1.93,-4.87 3.06,-7.48 1.02,-2.72 2.15,-5.44 3.4,-8.16l13.26 -29.82 10.55 0 -28.12 60.78 -12.02 0 -1.7 -32.88c-0.11,-2.04 -0.11,-3.97 -0.23,-5.78 0,-1.93 0,-3.85 0,-5.89 0.11,-2.04 0.11,-4.2 0.11,-6.58l-0.45 0c-0.68,1.81 -1.36,3.52 -2.04,5.22 -0.57,1.7 -1.36,3.4 -2.15,5.33 -0.8,1.81 -1.81,3.97 -3.06,6.57l-15.87 34.02 -11.79 0z"/>
  <path id="_5" class="fil5" d="M1088.96 456.26c-3.29,0 -6.12,-0.8 -8.61,-2.27 -2.38,-1.59 -4.31,-3.97 -5.78,-7.03 -1.36,-3.06 -2.04,-6.91 -2.04,-11.45 0,-4.54 0.46,-8.85 1.48,-13.04 0.91,-4.2 2.27,-8.17 3.97,-11.68 1.7,-3.52 3.85,-6.57 6.24,-9.19 2.49,-2.61 5.22,-4.65 8.28,-6.12 3.06,-1.47 6.35,-2.27 9.87,-2.27 2.61,0 4.99,0.45 6.92,1.48 2.04,1.02 3.74,2.27 5.1,3.85 1.36,1.59 2.49,3.29 3.29,5.22l0.57 0 3.63 -9.41 7.6 0 -12.93 60.78 -7.94 0 1.47 -11.22 -0.45 0c-1.7,2.15 -3.63,4.19 -5.78,6.12 -2.15,1.93 -4.42,3.4 -6.92,4.54 -2.38,1.13 -5.1,1.7 -7.94,1.7zm3.29 -8.28c2.83,0 5.56,-1.02 8.16,-3.06 2.72,-2.04 5.22,-4.76 7.37,-8.28 2.15,-3.52 3.85,-7.37 4.99,-11.68 0.57,-2.15 1.02,-4.19 1.13,-6.01 0.23,-1.93 0.34,-3.63 0.34,-5.22 0,-3.52 -1.02,-6.46 -2.95,-8.73 -1.93,-2.27 -4.65,-3.4 -7.94,-3.4 -2.38,0 -4.54,0.57 -6.69,1.81 -2.04,1.25 -3.97,2.95 -5.67,5.1 -1.7,2.15 -3.18,4.65 -4.42,7.48 -1.25,2.83 -2.16,6.01 -2.83,9.41 -0.68,3.29 -1.02,6.8 -1.02,10.32 0,4.08 0.8,7.15 2.5,9.19 1.7,2.04 3.97,3.06 7.03,3.06z"/>
  <path id="_6" class="fil5" d="M1134.66 455.13l12.93 -60.78 8.16 0 -1.25 11.22 0.57 0c1.59,-2.15 3.29,-4.08 4.99,-6.01 1.7,-1.81 3.74,-3.29 5.89,-4.54 2.15,-1.25 4.76,-1.81 7.6,-1.81 1.02,0 2.15,0.11 3.29,0.23 1.25,0.11 2.27,0.22 3.29,0.57l-2.15 8.96c-1.02,-0.23 -1.93,-0.34 -2.83,-0.45 -1.02,-0.11 -1.93,-0.23 -2.95,-0.23 -2.83,0 -5.33,0.68 -7.71,2.15 -2.38,1.48 -4.54,3.52 -6.46,5.9 -1.81,2.38 -3.4,5.1 -4.65,8.05 -1.24,2.95 -2.27,5.89 -2.83,8.96l-5.89 27.78 -9.98 0z"/>
  <path id="_7" class="fil5" d="M1201.78 456.26c-4.65,0 -8.73,-0.91 -12.02,-2.72 -3.29,-1.93 -5.67,-4.54 -7.37,-7.94 -1.7,-3.52 -2.61,-7.6 -2.61,-12.25 0,-4.87 0.68,-9.64 2.04,-14.4 1.47,-4.65 3.52,-8.96 6.12,-12.81 2.61,-3.97 5.78,-7.03 9.52,-9.41 3.74,-2.38 8.05,-3.52 12.7,-3.52 5.78,0 10.09,1.25 12.93,3.74 2.95,2.49 4.42,6.01 4.42,10.43 0,2.95 -0.68,5.78 -2.04,8.39 -1.36,2.61 -3.52,4.88 -6.35,6.8 -2.83,1.93 -6.57,3.52 -11,4.65 -4.42,1.02 -9.86,1.59 -16.1,1.59l-1.93 0c-0.11,0.68 -0.11,1.36 -0.22,2.16 0,0.79 0,1.47 0,2.04 0,4.65 1.13,8.28 3.4,11 2.27,2.61 5.67,3.97 10.31,3.97 2.83,0 5.56,-0.46 8.17,-1.25 2.61,-0.8 5.33,-1.93 8.39,-3.4l0 8.5c-2.83,1.25 -5.67,2.38 -8.5,3.17 -2.72,0.8 -6.01,1.25 -9.86,1.25zm-9.41 -35.49c4.54,0 8.73,-0.34 12.59,-1.13 3.85,-0.8 6.92,-2.16 9.3,-3.97 2.38,-1.93 3.51,-4.43 3.51,-7.48 0,-1.93 -0.68,-3.52 -2.04,-4.76 -1.25,-1.25 -3.29,-1.93 -6.12,-1.93 -2.38,0 -4.76,0.79 -7.15,2.27 -2.38,1.47 -4.42,3.74 -6.35,6.57 -1.93,2.83 -3.4,6.35 -4.54,10.43l0.79 0z"/>
  <polygon id="_8" class="fil5" points="1277.64,455.13 1292.83,383.13 1270.61,383.13 1272.54,374.17 1327.19,374.17 1325.37,383.13 1303.15,383.13 1287.84,455.13 "/>
  <path id="_9" class="fil5" d="M1330.02 456.26c-3.29,0 -6.12,-0.8 -8.61,-2.27 -2.38,-1.59 -4.31,-3.97 -5.78,-7.03 -1.36,-3.06 -2.04,-6.91 -2.04,-11.45 0,-4.54 0.46,-8.85 1.48,-13.04 0.91,-4.2 2.27,-8.17 3.97,-11.68 1.7,-3.52 3.85,-6.57 6.24,-9.19 2.49,-2.61 5.22,-4.65 8.28,-6.12 3.06,-1.47 6.35,-2.27 9.87,-2.27 2.61,0 4.99,0.45 6.92,1.48 2.04,1.02 3.74,2.27 5.1,3.85 1.36,1.59 2.49,3.29 3.29,5.22l0.57 0 3.63 -9.41 7.6 0 -12.93 60.78 -7.94 0 1.47 -11.22 -0.45 0c-1.7,2.15 -3.63,4.19 -5.78,6.12 -2.15,1.93 -4.42,3.4 -6.92,4.54 -2.38,1.13 -5.1,1.7 -7.94,1.7zm3.29 -8.28c2.83,0 5.56,-1.02 8.16,-3.06 2.72,-2.04 5.22,-4.76 7.37,-8.28 2.15,-3.52 3.85,-7.37 4.99,-11.68 0.57,-2.15 1.02,-4.19 1.13,-6.01 0.23,-1.93 0.34,-3.63 0.34,-5.22 0,-3.52 -1.02,-6.46 -2.95,-8.73 -1.93,-2.27 -4.65,-3.4 -7.94,-3.4 -2.38,0 -4.54,0.57 -6.69,1.81 -2.04,1.25 -3.97,2.95 -5.67,5.1 -1.7,2.15 -3.18,4.65 -4.42,7.48 -1.25,2.83 -2.16,6.01 -2.83,9.41 -0.68,3.29 -1.02,6.8 -1.02,10.32 0,4.08 0.8,7.15 2.5,9.19 1.7,2.04 3.97,3.06 7.03,3.06z"/>
  <path id="_10" class="fil5" d="M1375.71 455.13l12.93 -60.78 9.98 0 -12.93 60.78 -9.98 0zm20.98 -70.87c-1.59,0 -2.94,-0.45 -3.97,-1.36 -1.02,-1.02 -1.47,-2.27 -1.47,-3.97 0,-1.24 0.23,-2.49 0.8,-3.51 0.57,-1.13 1.24,-2.04 2.27,-2.72 1.02,-0.68 2.15,-1.02 3.63,-1.02 1.7,0 3.06,0.45 3.97,1.36 0.8,0.91 1.25,2.15 1.25,3.74 0,2.38 -0.68,4.2 -2.04,5.56 -1.36,1.25 -2.83,1.93 -4.43,1.93z"/>
  <polygon id="_11" class="fil5" points="1404.85,455.13 1423.22,368.96 1433.2,368.96 1414.83,455.13 "/>
  <path id="_12" class="fil5" d="M1459.16 456.04c-4.65,0 -8.73,-0.91 -12.13,-2.83 -3.4,-1.93 -6.01,-4.54 -7.82,-8.05 -1.81,-3.52 -2.72,-7.71 -2.72,-12.47 0,-3.74 0.46,-7.37 1.25,-11.11 0.8,-3.74 2.04,-7.37 3.74,-10.66 1.59,-3.29 3.63,-6.35 6.01,-8.96 2.38,-2.61 5.22,-4.65 8.5,-6.12 3.29,-1.48 6.92,-2.27 10.89,-2.27 4.76,0 8.84,0.91 12.13,2.83 3.4,1.93 6.01,4.65 7.83,8.16 1.81,3.52 2.72,7.6 2.72,12.47 0,3.74 -0.45,7.37 -1.25,11.11 -0.8,3.74 -2.04,7.26 -3.74,10.54 -1.59,3.4 -3.63,6.35 -6.01,8.96 -2.38,2.61 -5.22,4.65 -8.5,6.12 -3.29,1.48 -6.92,2.27 -10.89,2.27zm0.57 -8.28c2.16,0 4.2,-0.45 6.13,-1.36 1.93,-0.91 3.74,-2.27 5.44,-4.08 1.7,-1.7 3.06,-3.86 4.2,-6.46 1.24,-2.61 2.15,-5.67 2.83,-8.96 0.68,-3.29 1.02,-7.03 1.02,-11 0,-2.27 -0.34,-4.54 -1.13,-6.69 -0.8,-2.15 -2.15,-3.85 -3.97,-5.22 -1.81,-1.47 -4.2,-2.15 -7.26,-2.15 -2.5,0 -4.76,0.57 -6.92,1.59 -2.15,1.02 -3.97,2.5 -5.67,4.42 -1.7,1.93 -3.06,4.31 -4.31,6.92 -1.13,2.61 -2.04,5.44 -2.61,8.5 -0.57,3.06 -0.91,6.35 -0.91,9.75 0,4.65 1.13,8.28 3.4,10.89 2.38,2.61 5.56,3.85 9.75,3.85z"/>
  <path id="_13" class="fil5" d="M1498.05 455.13l12.93 -60.78 8.16 0 -1.25 11.22 0.57 0c1.59,-2.15 3.29,-4.08 4.99,-6.01 1.7,-1.81 3.74,-3.29 5.89,-4.54 2.15,-1.25 4.76,-1.81 7.6,-1.81 1.02,0 2.15,0.11 3.29,0.23 1.25,0.11 2.27,0.22 3.29,0.57l-2.15 8.96c-1.02,-0.23 -1.93,-0.34 -2.83,-0.45 -1.02,-0.11 -1.93,-0.23 -2.95,-0.23 -2.83,0 -5.33,0.68 -7.71,2.15 -2.38,1.48 -4.54,3.52 -6.46,5.9 -1.81,2.38 -3.4,5.1 -4.65,8.05 -1.24,2.95 -2.27,5.89 -2.83,8.96l-5.89 27.78 -9.98 0z"/>
  <path id="_14" class="fil5" d="M1565.18 456.26c-4.65,0 -8.73,-0.91 -12.02,-2.72 -3.29,-1.93 -5.67,-4.54 -7.37,-7.94 -1.7,-3.52 -2.61,-7.6 -2.61,-12.25 0,-4.87 0.68,-9.64 2.04,-14.4 1.47,-4.65 3.52,-8.96 6.12,-12.81 2.61,-3.97 5.78,-7.03 9.52,-9.41 3.74,-2.38 8.05,-3.52 12.7,-3.52 5.78,0 10.09,1.25 12.93,3.74 2.95,2.49 4.42,6.01 4.42,10.43 0,2.95 -0.68,5.78 -2.04,8.39 -1.36,2.61 -3.52,4.88 -6.35,6.8 -2.83,1.93 -6.57,3.52 -11,4.65 -4.42,1.02 -9.86,1.59 -16.1,1.59l-1.93 0c-0.11,0.68 -0.11,1.36 -0.22,2.16 0,0.79 0,1.47 0,2.04 0,4.65 1.13,8.28 3.4,11 2.27,2.61 5.67,3.97 10.31,3.97 2.83,0 5.56,-0.46 8.17,-1.25 2.61,-0.8 5.33,-1.93 8.39,-3.4l0 8.5c-2.83,1.25 -5.67,2.38 -8.5,3.17 -2.72,0.8 -6.01,1.25 -9.86,1.25zm-9.41 -35.49c4.54,0 8.73,-0.34 12.59,-1.13 3.85,-0.8 6.92,-2.16 9.3,-3.97 2.38,-1.93 3.51,-4.43 3.51,-7.48 0,-1.93 -0.68,-3.52 -2.04,-4.76 -1.25,-1.25 -3.29,-1.93 -6.12,-1.93 -2.38,0 -4.76,0.79 -7.15,2.27 -2.38,1.47 -4.42,3.74 -6.35,6.57 -1.93,2.83 -3.4,6.35 -4.54,10.43l0.79 0z"/>
  <path id="_15" class="fil5" d="M1616.2 456.26c-3.29,0 -6.12,-0.8 -8.61,-2.27 -2.38,-1.59 -4.31,-3.97 -5.78,-7.03 -1.36,-3.06 -2.04,-6.8 -2.04,-11.45 0,-4.43 0.46,-8.73 1.36,-12.93 0.8,-4.19 2.15,-7.94 3.85,-11.45 1.7,-3.52 3.74,-6.69 6.12,-9.3 2.5,-2.72 5.22,-4.76 8.28,-6.24 3.06,-1.47 6.46,-2.27 10.2,-2.27 2.72,0 5.1,0.45 7.03,1.47 1.93,1.02 3.63,2.27 4.99,3.74 1.36,1.59 2.49,3.29 3.29,5.22l0.57 0c0.22,-1.7 0.45,-3.4 0.68,-4.99 0.22,-1.59 0.45,-3.17 0.79,-4.87 0.34,-1.59 0.68,-3.29 1.02,-5.1l4.2 -19.84 9.87 0 -18.26 86.17 -8.17 0 1.25 -11.22 -0.45 0c-1.81,2.27 -3.74,4.31 -5.78,6.24 -2.04,1.93 -4.2,3.4 -6.57,4.54 -2.38,1.02 -4.99,1.59 -7.83,1.59zm3.4 -8.28c1.7,0 3.4,-0.46 5.1,-1.25 1.7,-0.8 3.4,-2.04 5.1,-3.52 1.59,-1.59 3.06,-3.4 4.54,-5.56 1.48,-2.15 2.72,-4.42 3.74,-6.92 1.13,-2.61 2.04,-5.22 2.61,-8.05 0.57,-2.83 0.91,-5.78 0.91,-8.84 0,-3.63 -0.91,-6.58 -2.61,-8.85 -1.81,-2.27 -4.76,-3.4 -8.73,-3.4 -2.38,0 -4.65,0.68 -6.8,1.93 -2.04,1.25 -3.86,2.95 -5.56,5.22 -1.7,2.15 -3.06,4.76 -4.31,7.71 -1.13,2.83 -2.04,5.9 -2.72,9.19 -0.57,3.29 -0.91,6.69 -0.91,10.09 0,4.08 0.8,7.15 2.38,9.19 1.7,2.04 4.08,3.06 7.26,3.06z"/>
  <polygon id="_16" class="fil5" points="1848.64,455.13 1855.21,424.74 1842.06,374.17 1852.15,374.17 1861.79,414.76 1888.32,374.17 1899.78,374.17 1865.08,425.08 1858.84,455.13 "/>
  <path id="_17" class="fil5" d="M1911.79 456.04c-4.65,0 -8.73,-0.91 -12.13,-2.83 -3.4,-1.93 -6.01,-4.54 -7.82,-8.05 -1.81,-3.52 -2.72,-7.71 -2.72,-12.47 0,-3.74 0.46,-7.37 1.25,-11.11 0.8,-3.74 2.04,-7.37 3.74,-10.66 1.59,-3.29 3.63,-6.35 6.01,-8.96 2.38,-2.61 5.22,-4.65 8.5,-6.12 3.29,-1.48 6.92,-2.27 10.89,-2.27 4.76,0 8.84,0.91 12.13,2.83 3.4,1.93 6.01,4.65 7.83,8.16 1.81,3.52 2.72,7.6 2.72,12.47 0,3.74 -0.45,7.37 -1.25,11.11 -0.8,3.74 -2.04,7.26 -3.74,10.54 -1.59,3.4 -3.63,6.35 -6.01,8.96 -2.38,2.61 -5.22,4.65 -8.5,6.12 -3.29,1.48 -6.92,2.27 -10.89,2.27zm0.57 -8.28c2.16,0 4.2,-0.45 6.13,-1.36 1.93,-0.91 3.74,-2.27 5.44,-4.08 1.7,-1.7 3.06,-3.86 4.2,-6.46 1.24,-2.61 2.15,-5.67 2.83,-8.96 0.68,-3.29 1.02,-7.03 1.02,-11 0,-2.27 -0.34,-4.54 -1.13,-6.69 -0.8,-2.15 -2.15,-3.85 -3.97,-5.22 -1.81,-1.47 -4.2,-2.15 -7.26,-2.15 -2.5,0 -4.76,0.57 -6.92,1.59 -2.15,1.02 -3.97,2.5 -5.67,4.42 -1.7,1.93 -3.06,4.31 -4.31,6.92 -1.13,2.61 -2.04,5.44 -2.61,8.5 -0.57,3.06 -0.91,6.35 -0.91,9.75 0,4.65 1.13,8.28 3.4,10.89 2.38,2.61 5.56,3.85 9.75,3.85z"/>
  <path id="_18" class="fil5" d="M1968.94 456.26c-3.06,0 -5.67,-0.57 -8.05,-1.7 -2.27,-1.13 -4.08,-2.83 -5.33,-5.1 -1.25,-2.27 -1.81,-4.99 -1.81,-8.28 0,-1.7 0.11,-3.4 0.34,-4.99 0.34,-1.47 0.57,-3.06 0.91,-4.76l7.94 -37.08 10.09 0 -8.17 38.21c-0.34,1.7 -0.57,3.06 -0.79,4.31 -0.11,1.25 -0.23,2.27 -0.23,3.29 0,2.38 0.57,4.31 1.81,5.67 1.25,1.48 3.29,2.16 6.12,2.16 2.61,0 5.33,-0.91 8.28,-2.72 3.06,-1.81 5.78,-4.76 8.39,-8.73 2.61,-3.97 4.54,-9.3 6.01,-15.99l5.56 -26.19 9.87 0 -12.93 60.78 -8.17 0 1.25 -11.22 -0.57 0c-1.47,1.81 -3.17,3.74 -5.1,5.67 -1.93,1.93 -4.08,3.52 -6.69,4.76 -2.5,1.25 -5.44,1.93 -8.73,1.93z"/>
  <path id="_19" class="fil5" d="M2016.33 455.13l12.93 -60.78 8.16 0 -1.25 11.22 0.57 0c1.59,-2.15 3.29,-4.08 4.99,-6.01 1.7,-1.81 3.74,-3.29 5.89,-4.54 2.15,-1.25 4.76,-1.81 7.6,-1.81 1.02,0 2.15,0.11 3.29,0.23 1.25,0.11 2.27,0.22 3.29,0.57l-2.15 8.96c-1.02,-0.23 -1.93,-0.34 -2.83,-0.45 -1.02,-0.11 -1.93,-0.23 -2.95,-0.23 -2.83,0 -5.33,0.68 -7.71,2.15 -2.38,1.48 -4.54,3.52 -6.46,5.9 -1.81,2.38 -3.4,5.1 -4.65,8.05 -1.24,2.95 -2.27,5.89 -2.83,8.96l-5.89 27.78 -9.98 0z"/>
  <path id="_20" class="fil5" d="M2103.3 455.13l-3.4 -80.96 9.98 0 1.59 49.32c0.11,3.06 0.11,6.35 0,9.64 -0.11,3.29 -0.34,6.46 -0.45,9.52l0.34 0c1.02,-2.95 2.38,-6.35 3.86,-10.09 1.47,-3.85 3.06,-7.48 4.65,-10.77l22.22 -47.62 10.32 0 2.27 47.39c0.11,2.38 0.23,4.76 0.34,7.37 0.11,2.61 0.11,4.99 0.11,7.37 0.11,2.38 0.11,4.42 0,6.35l0.34 0c0.68,-1.93 1.36,-4.08 2.15,-6.24 0.79,-2.15 1.59,-4.31 2.38,-6.46 0.91,-2.27 1.81,-4.54 2.72,-6.8l21.2 -48.98 10.77 0 -36.74 80.96 -10.32 0 -2.49 -52.16c-0.11,-1.7 -0.11,-3.4 -0.23,-5.22 -0.11,-1.93 -0.11,-3.74 -0.22,-5.56 0,-1.81 0,-3.52 0,-4.99l-0.34 0c-0.79,2.27 -1.59,4.54 -2.61,6.92 -1.02,2.38 -2.38,5.44 -4.08,9.18l-23.93 51.82 -10.43 0z"/>
  <path id="_21" class="fil5" d="M2210.67 456.04c-4.65,0 -8.73,-0.91 -12.13,-2.83 -3.4,-1.93 -6.01,-4.54 -7.82,-8.05 -1.81,-3.52 -2.72,-7.71 -2.72,-12.47 0,-3.74 0.46,-7.37 1.25,-11.11 0.8,-3.74 2.04,-7.37 3.74,-10.66 1.59,-3.29 3.63,-6.35 6.01,-8.96 2.38,-2.61 5.22,-4.65 8.5,-6.12 3.29,-1.48 6.92,-2.27 10.89,-2.27 4.76,0 8.84,0.91 12.13,2.83 3.4,1.93 6.01,4.65 7.83,8.16 1.81,3.52 2.72,7.6 2.72,12.47 0,3.74 -0.45,7.37 -1.25,11.11 -0.8,3.74 -2.04,7.26 -3.74,10.54 -1.59,3.4 -3.63,6.35 -6.01,8.96 -2.38,2.61 -5.22,4.65 -8.5,6.12 -3.29,1.48 -6.92,2.27 -10.89,2.27zm0.57 -8.28c2.16,0 4.2,-0.45 6.13,-1.36 1.93,-0.91 3.74,-2.27 5.44,-4.08 1.7,-1.7 3.06,-3.86 4.2,-6.46 1.24,-2.61 2.15,-5.67 2.83,-8.96 0.68,-3.29 1.02,-7.03 1.02,-11 0,-2.27 -0.34,-4.54 -1.13,-6.69 -0.8,-2.15 -2.15,-3.85 -3.97,-5.22 -1.81,-1.47 -4.2,-2.15 -7.26,-2.15 -2.5,0 -4.76,0.57 -6.92,1.59 -2.15,1.02 -3.97,2.5 -5.67,4.42 -1.7,1.93 -3.06,4.31 -4.31,6.92 -1.13,2.61 -2.04,5.44 -2.61,8.5 -0.57,3.06 -0.91,6.35 -0.91,9.75 0,4.65 1.13,8.28 3.4,10.89 2.38,2.61 5.56,3.85 9.75,3.85z"/>
  <path id="_22" class="fil5" d="M2249.56 455.13l12.93 -60.78 8.16 0 -1.25 11.22 0.57 0c1.59,-2.15 3.29,-4.08 4.99,-6.01 1.7,-1.81 3.74,-3.29 5.89,-4.54 2.15,-1.25 4.76,-1.81 7.6,-1.81 1.02,0 2.15,0.11 3.29,0.23 1.25,0.11 2.27,0.22 3.29,0.57l-2.15 8.96c-1.02,-0.23 -1.93,-0.34 -2.83,-0.45 -1.02,-0.11 -1.93,-0.23 -2.95,-0.23 -2.83,0 -5.33,0.68 -7.71,2.15 -2.38,1.48 -4.54,3.52 -6.46,5.9 -1.81,2.38 -3.4,5.1 -4.65,8.05 -1.24,2.95 -2.27,5.89 -2.83,8.96l-5.89 27.78 -9.98 0z"/>
  <path id="_23" class="fil5" d="M2294.58 455.13l18.25 -86.17 10.09 0 -7.37 34.24c-1.25,6.01 -2.38,10.77 -3.4,14.06 -0.91,3.29 -1.59,5.44 -1.93,6.46l0.23 0 28.8 -29.37 11.79 0 -26.08 26.08 16.21 34.7 -11 0 -12.81 -28.46 -8.16 6.46 -4.54 22 -10.09 0z"/>
  <path id="_24" class="fil5" d="M2342.2 482.34c-1.48,0 -2.72,-0.11 -3.97,-0.34 -1.25,-0.23 -2.27,-0.46 -3.29,-0.8l0 -8.39c1.02,0.34 2.04,0.57 3.06,0.79 1.02,0.34 2.04,0.46 3.29,0.46 2.72,0 4.88,-1.13 6.35,-3.4 1.47,-2.16 2.72,-5.33 3.63,-9.53l12.47 -59.19 -10.55 0 0.8 -4.2 11.34 -3.74 1.25 -5.44c0.91,-3.85 1.93,-7.03 3.17,-9.64 1.25,-2.61 2.61,-4.76 4.2,-6.35 1.7,-1.48 3.63,-2.61 5.78,-3.18 2.16,-0.68 4.65,-1.02 7.48,-1.02 1.93,0 3.85,0.23 5.78,0.68 2.04,0.34 3.63,0.91 4.87,1.47l-2.61 7.6c-1.02,-0.34 -2.27,-0.68 -3.52,-1.02 -1.25,-0.34 -2.61,-0.57 -4.08,-0.57 -2.94,0 -5.21,0.79 -6.91,2.49 -1.7,1.7 -3.18,4.88 -4.2,9.52l-1.36 5.78 13.04 0 -1.47 7.6 -13.04 0 -12.7 60.32c-0.91,4.2 -2.15,7.71 -3.74,10.77 -1.47,3.06 -3.52,5.33 -6.01,6.92 -2.38,1.59 -5.44,2.38 -9.07,2.38zm44.56 -27.21l18.37 -86.17 9.98 0 -18.37 86.17 -9.98 0z"/>
  <path id="_25" class="fil5" d="M2441.07 456.04c-4.65,0 -8.73,-0.91 -12.13,-2.83 -3.4,-1.93 -6.01,-4.54 -7.82,-8.05 -1.81,-3.52 -2.72,-7.71 -2.72,-12.47 0,-3.74 0.46,-7.37 1.25,-11.11 0.8,-3.74 2.04,-7.37 3.74,-10.66 1.59,-3.29 3.63,-6.35 6.01,-8.96 2.38,-2.61 5.22,-4.65 8.5,-6.12 3.29,-1.48 6.92,-2.27 10.89,-2.27 4.76,0 8.84,0.91 12.13,2.83 3.4,1.93 6.01,4.65 7.83,8.16 1.81,3.52 2.72,7.6 2.72,12.47 0,3.74 -0.45,7.37 -1.25,11.11 -0.8,3.74 -2.04,7.26 -3.74,10.54 -1.59,3.4 -3.63,6.35 -6.01,8.96 -2.38,2.61 -5.22,4.65 -8.5,6.12 -3.29,1.48 -6.92,2.27 -10.89,2.27zm0.57 -8.28c2.16,0 4.2,-0.45 6.13,-1.36 1.93,-0.91 3.74,-2.27 5.44,-4.08 1.7,-1.7 3.06,-3.86 4.2,-6.46 1.24,-2.61 2.15,-5.67 2.83,-8.96 0.68,-3.29 1.02,-7.03 1.02,-11 0,-2.27 -0.34,-4.54 -1.13,-6.69 -0.8,-2.15 -2.15,-3.85 -3.97,-5.22 -1.81,-1.47 -4.2,-2.15 -7.26,-2.15 -2.5,0 -4.76,0.57 -6.92,1.59 -2.15,1.02 -3.97,2.5 -5.67,4.42 -1.7,1.93 -3.06,4.31 -4.31,6.92 -1.13,2.61 -2.04,5.44 -2.61,8.5 -0.57,3.06 -0.91,6.35 -0.91,9.75 0,4.65 1.13,8.28 3.4,10.89 2.38,2.61 5.56,3.85 9.75,3.85z"/>
  <path id="_26" class="fil5" d="M2483.48 455.13l-2.49 -60.78 9.75 0 0.91 32.43c0.11,4.2 0.11,7.94 0,11.34 -0.11,3.29 -0.34,6.12 -0.45,8.28l0.45 0c0.57,-1.59 1.36,-3.4 2.15,-5.56 0.8,-2.15 1.7,-4.31 2.61,-6.46 1.02,-2.16 1.81,-4.08 2.61,-5.67l15.99 -34.36 10.77 0 1.93 32.54c0.11,2.83 0.11,6.01 0.23,9.75 0.11,3.63 0,6.91 -0.11,9.75l0.45 0c0.68,-1.93 1.48,-4.19 2.27,-6.57 0.91,-2.38 1.93,-4.87 3.06,-7.48 1.02,-2.72 2.15,-5.44 3.4,-8.16l13.26 -29.82 10.55 0 -28.12 60.78 -12.02 0 -1.7 -32.88c-0.11,-2.04 -0.11,-3.97 -0.23,-5.78 0,-1.93 0,-3.85 0,-5.89 0.11,-2.04 0.11,-4.2 0.11,-6.58l-0.45 0c-0.68,1.81 -1.36,3.52 -2.04,5.22 -0.57,1.7 -1.36,3.4 -2.15,5.33 -0.8,1.81 -1.81,3.97 -3.06,6.57l-15.87 34.02 -11.79 0z"/>
  <polygon id="_27" class="fil5" points="1706.68,455.13 1721.87,383.13 1699.65,383.13 1701.58,374.17 1756.23,374.17 1754.41,383.13 1732.19,383.13 1716.89,455.13 "/>
  <path id="_28" class="fil5" d="M1766.43 456.04c-4.65,0 -8.73,-0.91 -12.13,-2.83 -3.4,-1.93 -6.01,-4.54 -7.82,-8.05 -1.81,-3.52 -2.72,-7.71 -2.72,-12.47 0,-3.74 0.46,-7.37 1.25,-11.11 0.8,-3.74 2.04,-7.37 3.74,-10.66 1.59,-3.29 3.63,-6.35 6.01,-8.96 2.38,-2.61 5.22,-4.65 8.5,-6.12 3.29,-1.48 6.92,-2.27 10.89,-2.27 4.76,0 8.84,0.91 12.13,2.83 3.4,1.93 6.01,4.65 7.83,8.16 1.81,3.52 2.72,7.6 2.72,12.47 0,3.74 -0.45,7.37 -1.25,11.11 -0.8,3.74 -2.04,7.26 -3.74,10.54 -1.59,3.4 -3.63,6.35 -6.01,8.96 -2.38,2.61 -5.22,4.65 -8.5,6.12 -3.29,1.48 -6.92,2.27 -10.89,2.27zm0.57 -8.28c2.16,0 4.2,-0.45 6.13,-1.36 1.93,-0.91 3.74,-2.27 5.44,-4.08 1.7,-1.7 3.06,-3.86 4.2,-6.46 1.24,-2.61 2.15,-5.67 2.83,-8.96 0.68,-3.29 1.02,-7.03 1.02,-11 0,-2.27 -0.34,-4.54 -1.13,-6.69 -0.8,-2.15 -2.15,-3.85 -3.97,-5.22 -1.81,-1.47 -4.2,-2.15 -7.26,-2.15 -2.5,0 -4.76,0.57 -6.92,1.59 -2.15,1.02 -3.97,2.5 -5.67,4.42 -1.7,1.93 -3.06,4.31 -4.31,6.92 -1.13,2.61 -2.04,5.44 -2.61,8.5 -0.57,3.06 -0.91,6.35 -0.91,9.75 0,4.65 1.13,8.28 3.4,10.89 2.38,2.61 5.56,3.85 9.75,3.85z"/>
 </g>
</svg>
